<svg width="139" height="87" viewBox="0 0 139 87" fill="none" xmlns="http://www.w3.org/2000/svg">
<path d="M95.2849 66.5254L82.6086 44.5H55.1086L41.151 66.5254C40.7016 67.3508 40.478 68.2759 40.5017 69.211C40.5258 70.146 40.7964 71.0588 41.2878 71.8616C41.7787 72.664 42.4736 73.3284 43.3049 73.791C44.1362 74.2532 45.0755 74.4973 46.0319 74.4998H90.404C91.3604 74.4973 92.2997 74.2532 93.1309 73.791C93.9622 73.3284 94.6571 72.664 95.1481 71.8616C95.6394 71.0588 95.9101 70.146 95.9342 69.211C95.9579 68.2759 95.7343 67.3508 95.2849 66.5254Z" fill="#6CDCED" stroke="#6CDCED" stroke-width="5" stroke-linecap="round" stroke-linejoin="round"/>
<path d="M51.5785 3.5H84.8574M95.2849 66.0505L79.3111 37.0265V3.5H57.1247V37.0265L41.151 66.0505C40.7016 66.8758 40.478 67.801 40.5017 68.736C40.5258 69.6711 40.7964 70.5839 41.2878 71.3867C41.7787 72.1891 42.4736 72.8535 43.3049 73.3161C44.1362 73.7783 45.0755 74.0224 46.0319 74.0249H90.404C91.3604 74.0224 92.2996 73.7783 93.1309 73.3161C93.9622 72.8535 94.6571 72.1891 95.1481 71.3867C95.6394 70.5839 95.9101 69.6711 95.9341 68.736C95.9579 67.801 95.7343 66.8758 95.2849 66.0505Z" stroke="#1C1D25" stroke-width="7" stroke-linecap="round" stroke-linejoin="round"/>
<path d="M57.8541 73.1332L42 44.5H20L4.14587 73.1332C3.70002 74.2062 3.47817 75.4089 3.50169 76.6244C3.52558 77.84 3.79411 79.0266 4.28158 80.0703C4.76869 81.1134 5.45811 81.9771 6.28287 82.5785C7.10762 83.1794 8.03952 83.4967 8.9884 83.5H53.0116C53.9605 83.4967 54.8924 83.1794 55.7171 82.5785C56.5419 81.9771 57.2313 81.1134 57.7184 80.0703C58.2059 79.0266 58.4744 77.84 58.4983 76.6244C58.5218 75.4089 58.3 74.2062 57.8541 73.1332Z" fill="#BAEE6D" stroke="#BAEE6D" stroke-width="5" stroke-linecap="round" stroke-linejoin="round"/>
<path d="M133.854 76.1204L121.278 58.5H93.9938L80.1459 76.1204C79.7 76.7807 79.4782 77.5209 79.5017 78.2689C79.5256 79.0169 79.7941 79.7472 80.2816 80.3894C80.7687 81.0313 81.4581 81.5629 82.2829 81.9329C83.1076 82.3027 84.0395 82.498 84.9884 82.5H129.012C129.96 82.498 130.892 82.3027 131.717 81.9329C132.542 81.5629 133.231 81.0313 133.718 80.3894C134.206 79.7472 134.474 79.0169 134.498 78.2689C134.522 77.5209 134.3 76.7807 133.854 76.1204Z" fill="#D0AAFF" stroke="#D0AAFF" stroke-width="5" stroke-linecap="round" stroke-linejoin="round"/>
<path d="M90.5785 11.5H123.857M134.285 74.0505L118.311 45.0265V11.5H96.1247V45.0265L80.151 74.0505C79.7016 74.8758 79.478 75.801 79.5017 76.736C79.5258 77.6711 79.7964 78.5839 80.2878 79.3867C80.7787 80.1891 81.4736 80.8535 82.3049 81.3161C83.1362 81.7783 84.0755 82.0224 85.0319 82.0249H129.404C130.36 82.0224 131.3 81.7783 132.131 81.3161C132.962 80.8535 133.657 80.1891 134.148 79.3867C134.639 78.5839 134.91 77.6711 134.934 76.736C134.958 75.801 134.734 74.8758 134.285 74.0505Z" stroke="#1C1D25" stroke-width="7" stroke-linecap="round" stroke-linejoin="round"/>
<path d="M14.5785 12.5H47.8574M58.2849 75.0505L42.3111 46.0265V12.5H20.1247V46.0265L4.15099 75.0505C3.7016 75.8758 3.478 76.801 3.50171 77.736C3.52578 78.6711 3.79644 79.5839 4.28778 80.3867C4.77875 81.1891 5.47362 81.8535 6.30492 82.3161C7.13622 82.7783 8.07548 83.0224 9.03189 83.0249H53.404C54.3604 83.0224 55.2996 82.7783 56.1309 82.3161C56.9622 81.8535 57.6571 81.1891 58.1481 80.3867C58.6394 79.5839 58.9101 78.6711 58.9341 77.736C58.9579 76.801 58.7343 75.8758 58.2849 75.0505Z" stroke="#1C1D25" stroke-width="7" stroke-linecap="round" stroke-linejoin="round"/>
</svg>
