<svg width="484" height="152" viewBox="0 0 484 152" fill="none" xmlns="http://www.w3.org/2000/svg">
<path d="M134.175 137.417H29.6807C27.8331 137.417 26.0612 136.696 24.7548 135.412C23.4483 134.129 22.7144 132.389 22.7144 130.573V14.2358" stroke="#1C1D25" stroke-width="15" stroke-linecap="round" stroke-linejoin="round"/>
<path d="M8.26566 41.4428L76.4408 41.3301" stroke="#1C1D25" stroke-width="15" stroke-linecap="round" stroke-linejoin="round"/>
<path d="M70.9138 21.0674H112.809M125.936 99.9262L105.827 63.3351V21.0674H77.896V63.3351L57.7866 99.9262C57.2208 100.967 56.9393 102.133 56.9692 103.312C56.9995 104.491 57.3402 105.642 57.9588 106.654C58.5769 107.665 59.4516 108.503 60.4982 109.086C61.5447 109.669 62.7271 109.977 63.9312 109.98H119.791C120.995 109.977 122.178 109.669 123.224 109.086C124.271 108.503 125.146 107.665 125.764 106.654C126.382 105.642 126.723 104.491 126.753 103.312C126.783 102.133 126.502 100.967 125.936 99.9262Z" stroke="#1C1D25" stroke-width="15" stroke-linecap="round" stroke-linejoin="round"/>
<path d="M169.744 66.2646C165.367 66.2646 161.606 65.3889 158.462 63.6379C155.358 61.847 152.97 59.3397 151.298 56.116C149.627 52.8524 148.791 49.012 148.791 44.5943C148.791 41.291 149.269 38.326 150.224 35.6993C151.179 33.0328 152.552 30.7643 154.343 28.8938C156.134 26.9834 158.323 25.5308 160.909 24.5358C163.536 23.5011 166.481 22.9837 169.744 22.9837C171.933 22.9837 174.083 23.2623 176.192 23.8194C178.301 24.3766 180.151 25.1726 181.743 26.2074C182.579 26.7248 183.136 27.3615 183.415 28.1177C183.694 28.8341 183.753 29.5504 183.594 30.2668C183.435 30.9434 183.097 31.5205 182.579 31.9981C182.102 32.4756 181.485 32.7542 180.729 32.8338C180.012 32.8736 179.216 32.6149 178.341 32.0578C177.107 31.2618 175.774 30.6847 174.341 30.3265C172.908 29.9683 171.456 29.7892 169.983 29.7892C167.158 29.7892 164.77 30.3663 162.82 31.5205C160.869 32.6746 159.397 34.3462 158.402 36.5351C157.407 38.724 156.91 41.4104 156.91 44.5943C156.91 47.7386 157.407 50.425 158.402 52.6535C159.397 54.8821 160.869 56.5738 162.82 57.7278C164.77 58.8819 167.158 59.4591 169.983 59.4591C171.495 59.4591 172.988 59.28 174.46 58.9218C175.933 58.5237 177.326 57.9267 178.639 57.1309C179.515 56.6133 180.291 56.3947 180.967 56.4742C181.684 56.5141 182.281 56.7529 182.758 57.1906C183.236 57.6282 183.554 58.1857 183.713 58.8621C183.873 59.499 183.833 60.1755 183.594 60.8918C183.355 61.5683 182.878 62.1652 182.161 62.6828C180.569 63.8368 178.659 64.7322 176.43 65.3692C174.241 65.9662 172.013 66.2646 169.744 66.2646ZM201.236 66.2646C198.211 66.2646 195.585 65.6479 193.356 64.414C191.128 63.1801 189.396 61.4291 188.163 59.1606C186.929 56.8521 186.312 54.146 186.312 51.0417C186.312 48.6937 186.65 46.6043 187.327 44.7734C188.043 42.9029 189.058 41.3109 190.371 39.9976C191.685 38.6444 193.257 37.6295 195.087 36.953C196.918 36.2366 198.968 35.8784 201.236 35.8784C204.261 35.8784 206.888 36.4953 209.116 37.7291C211.345 38.9628 213.076 40.7139 214.31 42.9825C215.543 45.251 216.16 47.9374 216.16 51.0417C216.16 53.3896 215.802 55.4993 215.086 57.3697C214.409 59.24 213.414 60.8519 212.101 62.2052C210.788 63.5185 209.216 64.5334 207.385 65.2498C205.554 65.9262 203.505 66.2646 201.236 66.2646ZM201.236 60.5933C202.709 60.5933 204.002 60.2352 205.116 59.5188C206.231 58.8024 207.086 57.7476 207.683 56.3548C208.32 54.922 208.638 53.1509 208.638 51.0417C208.638 47.8579 207.962 45.4898 206.609 43.9376C205.256 42.3457 203.465 41.5497 201.236 41.5497C199.763 41.5497 198.47 41.9079 197.356 42.6243C196.241 43.3008 195.366 44.3555 194.729 45.7883C194.132 47.1811 193.834 48.9325 193.834 51.0417C193.834 54.1859 194.51 56.5738 195.863 58.2054C197.217 59.7975 199.008 60.5933 201.236 60.5933ZM226.14 66.1452C224.946 66.1452 224.03 65.827 223.394 65.1901C222.757 64.5137 222.438 63.5585 222.438 62.3246V39.7588C222.438 38.525 222.757 37.5898 223.394 36.953C224.03 36.3162 224.926 35.9978 226.08 35.9978C227.234 35.9978 228.13 36.3162 228.766 36.953C229.403 37.5898 229.721 38.525 229.721 39.7588V44.1167L229.065 42.3258C229.861 40.3359 231.094 38.7638 232.766 37.6097C234.437 36.4555 236.428 35.8784 238.736 35.8784C241.084 35.8784 243.014 36.4356 244.526 37.55C246.039 38.6643 247.093 40.3756 247.69 42.684H246.854C247.651 40.5747 248.964 38.923 250.794 37.7291C252.625 36.4953 254.734 35.8784 257.122 35.8784C259.351 35.8784 261.181 36.3162 262.614 37.1918C264.087 38.0674 265.181 39.4006 265.897 41.1915C266.614 42.9427 266.972 45.1714 266.972 47.8777V62.3246C266.972 63.5585 266.634 64.5137 265.957 65.1901C265.321 65.827 264.405 66.1452 263.211 66.1452C262.017 66.1452 261.102 65.827 260.465 65.1901C259.829 64.5137 259.51 63.5585 259.51 62.3246V48.1762C259.51 45.9476 259.132 44.3157 258.376 43.281C257.659 42.2462 256.426 41.7288 254.674 41.7288C252.725 41.7288 251.192 42.4253 250.078 43.8182C248.964 45.1714 248.406 47.0617 248.406 49.4895V62.3246C248.406 63.5585 248.088 64.5137 247.451 65.1901C246.815 65.827 245.899 66.1452 244.705 66.1452C243.511 66.1452 242.576 65.827 241.899 65.1901C241.263 64.5137 240.944 63.5585 240.944 62.3246V48.1762C240.944 45.9476 240.566 44.3157 239.81 43.281C239.094 42.2462 237.88 41.7288 236.169 41.7288C234.219 41.7288 232.686 42.4253 231.572 43.8182C230.458 45.1714 229.9 47.0617 229.9 49.4895V62.3246C229.9 64.8718 228.647 66.1452 226.14 66.1452ZM278.491 66.1452C277.297 66.1452 276.381 65.827 275.745 65.1901C275.108 64.5137 274.789 63.5585 274.789 62.3246V39.7588C274.789 38.525 275.108 37.5898 275.745 36.953C276.381 36.3162 277.277 35.9978 278.431 35.9978C279.585 35.9978 280.481 36.3162 281.117 36.953C281.754 37.5898 282.072 38.525 282.072 39.7588V44.1167L281.416 42.3258C282.212 40.3359 283.445 38.7638 285.117 37.6097C286.788 36.4555 288.779 35.8784 291.087 35.8784C293.435 35.8784 295.365 36.4356 296.877 37.55C298.39 38.6643 299.444 40.3756 300.041 42.684H299.205C300.002 40.5747 301.315 38.923 303.145 37.7291C304.976 36.4953 307.085 35.8784 309.473 35.8784C311.702 35.8784 313.532 36.3162 314.965 37.1918C316.438 38.0674 317.532 39.4006 318.248 41.1915C318.965 42.9427 319.323 45.1714 319.323 47.8777V62.3246C319.323 63.5585 318.985 64.5137 318.308 65.1901C317.672 65.827 316.756 66.1452 315.562 66.1452C314.368 66.1452 313.453 65.827 312.816 65.1901C312.18 64.5137 311.861 63.5585 311.861 62.3246V48.1762C311.861 45.9476 311.483 44.3157 310.727 43.281C310.01 42.2462 308.777 41.7288 307.025 41.7288C305.076 41.7288 303.543 42.4253 302.429 43.8182C301.315 45.1714 300.757 47.0617 300.757 49.4895V62.3246C300.757 63.5585 300.439 64.5137 299.802 65.1901C299.166 65.827 298.25 66.1452 297.056 66.1452C295.862 66.1452 294.927 65.827 294.25 65.1901C293.614 64.5137 293.295 63.5585 293.295 62.3246V48.1762C293.295 45.9476 292.917 44.3157 292.161 43.281C291.445 42.2462 290.231 41.7288 288.52 41.7288C286.57 41.7288 285.037 42.4253 283.923 43.8182C282.809 45.1714 282.251 47.0617 282.251 49.4895V62.3246C282.251 64.8718 280.998 66.1452 278.491 66.1452ZM337.587 66.2646C335.16 66.2646 333.15 65.827 331.558 64.9513C329.966 64.0361 328.772 62.6828 327.976 60.8918C327.22 59.1009 326.842 56.8723 326.842 54.2057V39.7588C326.842 38.4852 327.161 37.55 327.797 36.953C328.434 36.3162 329.349 35.9978 330.543 35.9978C331.737 35.9978 332.653 36.3162 333.289 36.953C333.966 37.55 334.304 38.4852 334.304 39.7588V54.3251C334.304 56.3947 334.722 57.9267 335.558 58.9218C336.393 59.9169 337.727 60.4142 339.557 60.4142C341.547 60.4142 343.179 59.7378 344.452 58.3845C345.726 56.9917 346.363 55.1608 346.363 52.8923V39.7588C346.363 38.4852 346.681 37.55 347.318 36.953C347.955 36.3162 348.87 35.9978 350.064 35.9978C351.258 35.9978 352.173 36.3162 352.81 36.953C353.487 37.55 353.825 38.4852 353.825 39.7588V62.3246C353.825 64.8718 352.611 66.1452 350.183 66.1452C349.029 66.1452 348.134 65.827 347.497 65.1901C346.86 64.5137 346.542 63.5585 346.542 62.3246V57.7875L347.377 59.5785C346.542 61.7276 345.268 63.3794 343.557 64.5334C341.885 65.6874 339.896 66.2646 337.587 66.2646ZM365.292 66.1452C364.098 66.1452 363.183 65.827 362.546 65.1901C361.91 64.5137 361.591 63.5585 361.591 62.3246V39.7588C361.591 38.525 361.91 37.5898 362.546 36.953C363.183 36.3162 364.079 35.9978 365.233 35.9978C366.387 35.9978 367.283 36.3162 367.919 36.953C368.556 37.5898 368.874 38.525 368.874 39.7588V43.8182L368.217 42.3258C369.093 40.2165 370.446 38.6245 372.277 37.55C374.148 36.4356 376.257 35.8784 378.605 35.8784C380.953 35.8784 382.883 36.3162 384.395 37.1918C385.908 38.0674 387.042 39.4006 387.798 41.1915C388.554 42.9427 388.932 45.1714 388.932 47.8777V62.3246C388.932 63.5585 388.614 64.5137 387.977 65.1901C387.341 65.827 386.425 66.1452 385.231 66.1452C384.037 66.1452 383.102 65.827 382.425 65.1901C381.789 64.5137 381.47 63.5585 381.47 62.3246V48.2359C381.47 45.9674 381.032 44.3157 380.157 43.281C379.321 42.2462 378.008 41.7288 376.217 41.7288C374.028 41.7288 372.277 42.4253 370.964 43.8182C369.69 45.1714 369.053 46.9822 369.053 49.2507V62.3246C369.053 64.8718 367.8 66.1452 365.292 66.1452ZM400.212 66.0855C399.019 66.0855 398.103 65.7274 397.466 65.011C396.83 64.2946 396.511 63.2995 396.511 62.0261V40.117C396.511 38.8036 396.83 37.8086 397.466 37.1321C398.103 36.4157 399.019 36.0575 400.212 36.0575C401.406 36.0575 402.322 36.4157 402.959 37.1321C403.635 37.8086 403.973 38.8036 403.973 40.117V62.0261C403.973 63.2995 403.655 64.2946 403.018 65.011C402.382 65.7274 401.446 66.0855 400.212 66.0855ZM400.212 30.5056C398.82 30.5056 397.725 30.1673 396.929 29.4907C396.173 28.7744 395.795 27.7993 395.795 26.5655C395.795 25.292 396.173 24.3169 396.929 23.6404C397.725 22.9638 398.82 22.6255 400.212 22.6255C401.645 22.6255 402.74 22.9638 403.496 23.6404C404.252 24.3169 404.63 25.292 404.63 26.5655C404.63 27.7993 404.252 28.7744 403.496 29.4907C402.74 30.1673 401.645 30.5056 400.212 30.5056ZM425.099 66.2646C422.512 66.2646 420.343 65.827 418.592 64.9513C416.881 64.0756 415.607 62.8022 414.771 61.1306C413.936 59.4191 413.518 57.31 413.518 54.8026V42.087H410.414C409.459 42.087 408.722 41.8482 408.205 41.3706C407.687 40.8532 407.429 40.1568 407.429 39.2812C407.429 38.3658 407.687 37.6694 408.205 37.1918C408.722 36.7142 409.459 36.4754 410.414 36.4754H413.518V31.0429C413.518 29.8091 413.836 28.8739 414.473 28.2371C415.149 27.6003 416.085 27.2819 417.279 27.2819C418.473 27.2819 419.388 27.6003 420.025 28.2371C420.662 28.8739 420.98 29.8091 420.98 31.0429V36.4754H427.308C428.263 36.4754 428.999 36.7142 429.516 37.1918C430.034 37.6694 430.293 38.3658 430.293 39.2812C430.293 40.1568 430.034 40.8532 429.516 41.3706C428.999 41.8482 428.263 42.087 427.308 42.087H420.98V54.3848C420.98 56.2951 421.398 57.7278 422.234 58.683C423.069 59.6382 424.423 60.1158 426.293 60.1158C426.969 60.1158 427.566 60.0561 428.084 59.9367C428.601 59.8173 429.059 59.7378 429.457 59.6979C429.934 59.6579 430.333 59.8173 430.651 60.1755C430.969 60.4937 431.128 61.1706 431.128 62.2052C431.128 63.001 430.989 63.7174 430.71 64.3543C430.472 64.9513 430.014 65.3692 429.337 65.608C428.82 65.7673 428.143 65.9065 427.308 66.0258C426.472 66.1852 425.736 66.2646 425.099 66.2646ZM442.506 76.8909C441.631 76.8909 440.915 76.6521 440.357 76.1745C439.8 75.7369 439.462 75.1399 439.343 74.3835C439.263 73.6272 439.402 72.8314 439.76 71.9956L443.82 62.9813V66.0855L432.955 40.9527C432.597 40.0772 432.477 39.2613 432.597 38.5051C432.716 37.7489 433.074 37.152 433.671 36.7142C434.308 36.2366 435.164 35.9978 436.238 35.9978C437.154 35.9978 437.89 36.2167 438.447 36.6545C439.005 37.0525 439.502 37.8286 439.939 38.9827L447.998 59.1009H446.208L454.446 38.923C454.884 37.8086 455.401 37.0525 455.998 36.6545C456.595 36.2167 457.391 35.9978 458.386 35.9978C459.263 35.9978 459.956 36.2366 460.475 36.7142C460.994 37.152 461.311 37.7489 461.43 38.5051C461.55 39.2215 461.412 40.0175 461.012 40.893L446.506 74.0254C445.989 75.1399 445.432 75.8957 444.835 76.2939C444.238 76.692 443.462 76.8909 442.506 76.8909ZM158.792 122.564C157.58 122.564 156.368 122.468 155.156 122.275C153.943 122.11 152.8 121.848 151.725 121.49C150.651 121.104 149.686 120.636 148.832 120.085C148.336 119.754 147.992 119.354 147.799 118.886C147.606 118.418 147.537 117.963 147.592 117.522C147.675 117.054 147.854 116.654 148.13 116.324C148.433 115.965 148.805 115.745 149.246 115.662C149.686 115.58 150.169 115.704 150.692 116.034C151.904 116.751 153.186 117.274 154.536 117.605C155.886 117.935 157.305 118.101 158.792 118.101C160.969 118.101 162.553 117.743 163.545 117.026C164.537 116.282 165.033 115.332 165.033 114.174C165.033 113.21 164.675 112.452 163.958 111.901C163.27 111.35 162.071 110.896 160.363 110.538L155.817 109.587C153.199 109.036 151.243 108.113 149.948 106.818C148.681 105.495 148.047 103.76 148.047 101.61C148.047 100.26 148.323 99.0342 148.874 97.9321C149.425 96.83 150.196 95.8794 151.188 95.0803C152.207 94.2813 153.406 93.6751 154.784 93.2619C156.189 92.821 157.732 92.6006 159.412 92.6006C161.065 92.6006 162.636 92.8072 164.124 93.2205C165.612 93.6338 166.948 94.24 168.133 95.039C168.573 95.3421 168.863 95.7141 169.001 96.1549C169.166 96.5958 169.207 97.0366 169.124 97.4774C169.042 97.8907 168.849 98.2489 168.546 98.552C168.243 98.8551 167.857 99.0342 167.389 99.0893C166.948 99.1444 166.438 99.0066 165.86 98.676C164.84 98.0974 163.807 97.6841 162.76 97.4361C161.713 97.1881 160.583 97.0642 159.371 97.0642C158.104 97.0642 157.015 97.2432 156.106 97.6014C155.197 97.9596 154.494 98.4693 153.998 99.1306C153.53 99.7643 153.296 100.522 153.296 101.404C153.296 102.396 153.626 103.195 154.288 103.801C154.949 104.379 156.079 104.834 157.677 105.165L162.181 106.115C164.909 106.694 166.934 107.603 168.257 108.843C169.607 110.083 170.282 111.736 170.282 113.803C170.282 115.125 170.006 116.324 169.455 117.398C168.932 118.473 168.16 119.396 167.141 120.167C166.149 120.939 164.95 121.531 163.545 121.944C162.14 122.358 160.556 122.564 158.792 122.564ZM183.666 122.564C181.545 122.564 179.699 122.137 178.128 121.283C176.558 120.401 175.345 119.162 174.491 117.563C173.637 115.965 173.21 114.092 173.21 111.943C173.21 110.317 173.444 108.871 173.913 107.603C174.409 106.308 175.111 105.22 176.02 104.338C176.93 103.429 178.032 102.74 179.327 102.272C180.622 101.776 182.068 101.528 183.666 101.528C184.575 101.528 185.553 101.652 186.6 101.9C187.675 102.148 188.681 102.561 189.617 103.14C190.058 103.415 190.347 103.746 190.485 104.131C190.623 104.517 190.651 104.917 190.568 105.33C190.485 105.716 190.306 106.06 190.031 106.363C189.783 106.639 189.466 106.818 189.08 106.901C188.694 106.956 188.267 106.859 187.799 106.611C187.193 106.253 186.573 105.991 185.939 105.826C185.305 105.633 184.699 105.537 184.121 105.537C183.211 105.537 182.412 105.688 181.724 105.991C181.035 106.267 180.442 106.68 179.947 107.231C179.478 107.755 179.12 108.416 178.872 109.215C178.624 110.014 178.5 110.937 178.5 111.984C178.5 114.023 178.982 115.635 179.947 116.82C180.938 117.977 182.33 118.555 184.121 118.555C184.699 118.555 185.292 118.473 185.898 118.307C186.532 118.142 187.165 117.88 187.799 117.522C188.267 117.274 188.681 117.192 189.039 117.274C189.424 117.357 189.741 117.55 189.989 117.853C190.237 118.128 190.389 118.473 190.444 118.886C190.499 119.272 190.444 119.658 190.279 120.043C190.141 120.429 189.865 120.746 189.452 120.994C188.543 121.545 187.578 121.944 186.559 122.192C185.54 122.44 184.575 122.564 183.666 122.564ZM196.382 122.44C195.556 122.44 194.922 122.192 194.481 121.696C194.04 121.2 193.82 120.512 193.82 119.63V104.462C193.82 103.553 194.04 102.864 194.481 102.396C194.922 101.9 195.556 101.652 196.382 101.652C197.209 101.652 197.843 101.9 198.283 102.396C198.752 102.864 198.986 103.553 198.986 104.462V119.63C198.986 120.512 198.766 121.2 198.325 121.696C197.884 122.192 197.236 122.44 196.382 122.44ZM196.382 97.8081C195.418 97.8081 194.66 97.5739 194.109 97.1055C193.586 96.6095 193.324 95.9345 193.324 95.0803C193.324 94.1987 193.586 93.5236 194.109 93.0552C194.66 92.5868 195.418 92.3526 196.382 92.3526C197.374 92.3526 198.132 92.5868 198.655 93.0552C199.179 93.5236 199.441 94.1987 199.441 95.0803C199.441 95.9345 199.179 96.6095 198.655 97.1055C198.132 97.5739 197.374 97.8081 196.382 97.8081ZM214.314 122.564C212.027 122.564 210.057 122.137 208.404 121.283C206.751 120.429 205.469 119.217 204.56 117.646C203.679 116.076 203.238 114.216 203.238 112.067C203.238 109.973 203.665 108.14 204.519 106.57C205.401 104.999 206.599 103.773 208.115 102.892C209.657 101.982 211.407 101.528 213.363 101.528C214.796 101.528 216.077 101.762 217.207 102.23C218.364 102.699 219.342 103.374 220.141 104.255C220.968 105.137 221.588 106.212 222.001 107.479C222.442 108.719 222.662 110.124 222.662 111.695C222.662 112.191 222.483 112.576 222.125 112.852C221.794 113.1 221.312 113.224 220.678 113.224H207.412V110.248H219.025L218.364 110.868C218.364 109.601 218.171 108.54 217.785 107.686C217.427 106.832 216.89 106.184 216.174 105.743C215.485 105.275 214.617 105.041 213.57 105.041C212.413 105.041 211.421 105.316 210.594 105.867C209.795 106.391 209.175 107.149 208.734 108.14C208.321 109.105 208.115 110.262 208.115 111.612V111.901C208.115 114.161 208.638 115.855 209.685 116.985C210.76 118.087 212.33 118.638 214.396 118.638C215.113 118.638 215.912 118.555 216.793 118.39C217.703 118.197 218.557 117.88 219.356 117.44C219.934 117.109 220.444 116.971 220.885 117.026C221.326 117.054 221.67 117.205 221.918 117.481C222.194 117.756 222.359 118.101 222.414 118.514C222.469 118.9 222.387 119.299 222.166 119.713C221.973 120.126 221.629 120.484 221.133 120.787C220.169 121.393 219.053 121.848 217.785 122.151C216.545 122.427 215.388 122.564 214.314 122.564ZM229.315 122.482C228.489 122.482 227.855 122.261 227.414 121.82C226.974 121.352 226.753 120.691 226.753 119.837V104.214C226.753 103.36 226.974 102.712 227.414 102.272C227.855 101.831 228.475 101.61 229.274 101.61C230.073 101.61 230.693 101.831 231.134 102.272C231.575 102.712 231.795 103.36 231.795 104.214V107.025L231.341 105.991C231.947 104.531 232.883 103.429 234.151 102.685C235.446 101.913 236.906 101.528 238.532 101.528C240.157 101.528 241.494 101.831 242.541 102.437C243.587 103.043 244.373 103.966 244.896 105.206C245.42 106.418 245.681 107.961 245.681 109.835V119.837C245.681 120.691 245.461 121.352 245.02 121.82C244.579 122.261 243.946 122.482 243.119 122.482C242.293 122.482 241.645 122.261 241.177 121.82C240.736 121.352 240.515 120.691 240.515 119.837V110.083C240.515 108.512 240.212 107.369 239.606 106.653C239.028 105.936 238.118 105.578 236.879 105.578C235.363 105.578 234.151 106.06 233.242 107.025C232.36 107.961 231.919 109.215 231.919 110.785V119.837C231.919 121.6 231.051 122.482 229.315 122.482ZM260.269 122.564C258.147 122.564 256.301 122.137 254.731 121.283C253.16 120.401 251.948 119.162 251.094 117.563C250.24 115.965 249.813 114.092 249.813 111.943C249.813 110.317 250.047 108.871 250.515 107.603C251.011 106.308 251.714 105.22 252.623 104.338C253.532 103.429 254.635 102.74 255.929 102.272C257.224 101.776 258.671 101.528 260.269 101.528C261.178 101.528 262.156 101.652 263.203 101.9C264.278 102.148 265.283 102.561 266.22 103.14C266.661 103.415 266.95 103.746 267.088 104.131C267.226 104.517 267.253 104.917 267.171 105.33C267.088 105.716 266.909 106.06 266.633 106.363C266.386 106.639 266.069 106.818 265.683 106.901C265.297 106.956 264.87 106.859 264.402 106.611C263.796 106.253 263.176 105.991 262.542 105.826C261.908 105.633 261.302 105.537 260.724 105.537C259.814 105.537 259.015 105.688 258.327 105.991C257.638 106.267 257.045 106.68 256.549 107.231C256.081 107.755 255.723 108.416 255.475 109.215C255.227 110.014 255.103 110.937 255.103 111.984C255.103 114.023 255.585 115.635 256.549 116.82C257.541 117.977 258.933 118.555 260.724 118.555C261.302 118.555 261.895 118.473 262.501 118.307C263.134 118.142 263.768 117.88 264.402 117.522C264.87 117.274 265.283 117.192 265.642 117.274C266.027 117.357 266.344 117.55 266.592 117.853C266.84 118.128 266.992 118.473 267.047 118.886C267.102 119.272 267.047 119.658 266.881 120.043C266.744 120.429 266.468 120.746 266.055 120.994C265.146 121.545 264.181 121.944 263.162 122.192C262.142 122.44 261.178 122.564 260.269 122.564ZM279.979 122.564C277.692 122.564 275.722 122.137 274.069 121.283C272.416 120.429 271.135 119.217 270.225 117.646C269.344 116.076 268.903 114.216 268.903 112.067C268.903 109.973 269.33 108.14 270.184 106.57C271.066 104.999 272.264 103.773 273.78 102.892C275.323 101.982 277.072 101.528 279.028 101.528C280.461 101.528 281.742 101.762 282.872 102.23C284.029 102.699 285.007 103.374 285.806 104.255C286.633 105.137 287.253 106.212 287.666 107.479C288.107 108.719 288.327 110.124 288.327 111.695C288.327 112.191 288.148 112.576 287.79 112.852C287.459 113.1 286.977 113.224 286.343 113.224H273.077V110.248H284.69L284.029 110.868C284.029 109.601 283.836 108.54 283.45 107.686C283.092 106.832 282.555 106.184 281.839 105.743C281.15 105.275 280.282 105.041 279.235 105.041C278.078 105.041 277.086 105.316 276.259 105.867C275.46 106.391 274.84 107.149 274.4 108.14C273.986 109.105 273.78 110.262 273.78 111.612V111.901C273.78 114.161 274.303 115.855 275.35 116.985C276.425 118.087 277.995 118.638 280.062 118.638C280.778 118.638 281.577 118.555 282.459 118.39C283.368 118.197 284.222 117.88 285.021 117.44C285.599 117.109 286.109 116.971 286.55 117.026C286.991 117.054 287.335 117.205 287.583 117.481C287.859 117.756 288.024 118.101 288.079 118.514C288.134 118.9 288.052 119.299 287.831 119.713C287.638 120.126 287.294 120.484 286.798 120.787C285.834 121.393 284.718 121.848 283.45 122.151C282.211 122.427 281.053 122.564 279.979 122.564ZM306.614 122.482C305.843 122.482 305.25 122.261 304.837 121.82C304.424 121.38 304.217 120.773 304.217 120.002V95.163C304.217 94.364 304.437 93.7578 304.878 93.3445C305.319 92.9037 305.925 92.6832 306.697 92.6832C307.385 92.6832 307.923 92.821 308.308 93.0965C308.722 93.3445 309.094 93.7854 309.424 94.4191L319.632 113.307H318.31L328.518 94.4191C328.849 93.7854 329.207 93.3445 329.593 93.0965C329.978 92.821 330.516 92.6832 331.204 92.6832C331.976 92.6832 332.568 92.9037 332.981 93.3445C333.395 93.7578 333.601 94.364 333.601 95.163V120.002C333.601 120.773 333.395 121.38 332.981 121.82C332.596 122.261 332.003 122.482 331.204 122.482C330.433 122.482 329.84 122.261 329.427 121.82C329.014 121.38 328.807 120.773 328.807 120.002V100.866H329.717L321.038 116.696C320.762 117.164 320.473 117.508 320.17 117.729C319.867 117.949 319.453 118.059 318.93 118.059C318.406 118.059 317.979 117.949 317.649 117.729C317.318 117.481 317.029 117.136 316.781 116.696L308.019 100.825H309.011V120.002C309.011 120.773 308.804 121.38 308.391 121.82C308.005 122.261 307.413 122.482 306.614 122.482ZM346.833 122.564C345.153 122.564 343.761 122.261 342.659 121.655C341.557 121.021 340.731 120.085 340.179 118.845C339.656 117.605 339.394 116.062 339.394 114.216V104.214C339.394 103.332 339.615 102.685 340.055 102.272C340.496 101.831 341.13 101.61 341.957 101.61C342.783 101.61 343.417 101.831 343.858 102.272C344.326 102.685 344.56 103.332 344.56 104.214V114.298C344.56 115.731 344.85 116.792 345.428 117.481C346.007 118.17 346.93 118.514 348.197 118.514C349.575 118.514 350.704 118.046 351.586 117.109C352.468 116.145 352.909 114.877 352.909 113.307V104.214C352.909 103.332 353.129 102.685 353.57 102.272C354.011 101.831 354.644 101.61 355.471 101.61C356.297 101.61 356.931 101.831 357.372 102.272C357.84 102.685 358.075 103.332 358.075 104.214V119.837C358.075 121.6 357.234 122.482 355.554 122.482C354.755 122.482 354.135 122.261 353.694 121.82C353.253 121.352 353.033 120.691 353.033 119.837V116.696L353.611 117.935C353.033 119.423 352.151 120.567 350.966 121.366C349.809 122.165 348.431 122.564 346.833 122.564ZM370.849 122.564C369.664 122.564 368.411 122.44 367.088 122.192C365.766 121.944 364.581 121.517 363.534 120.911C363.093 120.636 362.776 120.319 362.584 119.961C362.418 119.575 362.349 119.203 362.377 118.845C362.432 118.459 362.57 118.128 362.79 117.853C363.038 117.577 363.341 117.398 363.699 117.316C364.085 117.233 364.498 117.302 364.939 117.522C366.041 118.046 367.075 118.418 368.039 118.638C369.003 118.831 369.954 118.927 370.89 118.927C372.213 118.927 373.191 118.707 373.825 118.266C374.486 117.798 374.817 117.192 374.817 116.448C374.817 115.814 374.596 115.332 374.155 115.001C373.742 114.643 373.108 114.381 372.254 114.216L368.122 113.431C366.413 113.1 365.105 112.48 364.195 111.571C363.314 110.634 362.873 109.435 362.873 107.975C362.873 106.653 363.231 105.509 363.947 104.545C364.691 103.58 365.711 102.836 367.006 102.313C368.301 101.789 369.788 101.528 371.469 101.528C372.681 101.528 373.811 101.665 374.858 101.941C375.933 102.189 376.966 102.589 377.958 103.14C378.371 103.36 378.646 103.649 378.784 104.007C378.95 104.366 378.991 104.738 378.908 105.123C378.826 105.482 378.66 105.812 378.412 106.115C378.164 106.391 377.847 106.57 377.462 106.653C377.104 106.708 376.69 106.625 376.222 106.405C375.368 105.964 374.541 105.647 373.742 105.454C372.971 105.261 372.227 105.165 371.51 105.165C370.16 105.165 369.155 105.399 368.493 105.867C367.86 106.336 367.543 106.956 367.543 107.727C367.543 108.306 367.736 108.788 368.122 109.174C368.507 109.559 369.1 109.821 369.899 109.959L374.031 110.744C375.822 111.075 377.172 111.681 378.082 112.563C379.018 113.444 379.487 114.629 379.487 116.117C379.487 118.128 378.702 119.713 377.131 120.87C375.561 121.999 373.467 122.564 370.849 122.564ZM393.591 122.564C391.304 122.564 389.334 122.137 387.681 121.283C386.028 120.429 384.747 119.217 383.838 117.646C382.956 116.076 382.515 114.216 382.515 112.067C382.515 109.973 382.942 108.14 383.796 106.57C384.678 104.999 385.877 103.773 387.392 102.892C388.935 101.982 390.684 101.528 392.641 101.528C394.073 101.528 395.355 101.762 396.484 102.23C397.641 102.699 398.619 103.374 399.418 104.255C400.245 105.137 400.865 106.212 401.278 107.479C401.719 108.719 401.94 110.124 401.94 111.695C401.94 112.191 401.76 112.576 401.402 112.852C401.072 113.1 400.589 113.224 399.956 113.224H386.689V110.248H398.303L397.641 110.868C397.641 109.601 397.449 108.54 397.063 107.686C396.705 106.832 396.167 106.184 395.451 105.743C394.762 105.275 393.894 105.041 392.847 105.041C391.69 105.041 390.698 105.316 389.872 105.867C389.073 106.391 388.453 107.149 388.012 108.14C387.599 109.105 387.392 110.262 387.392 111.612V111.901C387.392 114.161 387.915 115.855 388.962 116.985C390.037 118.087 391.607 118.638 393.674 118.638C394.39 118.638 395.189 118.555 396.071 118.39C396.98 118.197 397.834 117.88 398.633 117.44C399.212 117.109 399.722 116.971 400.162 117.026C400.603 117.054 400.948 117.205 401.196 117.481C401.471 117.756 401.636 118.101 401.692 118.514C401.747 118.9 401.664 119.299 401.444 119.713C401.251 120.126 400.906 120.484 400.41 120.787C399.446 121.393 398.33 121.848 397.063 122.151C395.823 122.427 394.666 122.564 393.591 122.564ZM413.346 122.564C411.665 122.564 410.274 122.261 409.172 121.655C408.069 121.021 407.243 120.085 406.692 118.845C406.168 117.605 405.907 116.062 405.907 114.216V104.214C405.907 103.332 406.127 102.685 406.568 102.272C407.009 101.831 407.642 101.61 408.469 101.61C409.296 101.61 409.929 101.831 410.37 102.272C410.838 102.685 411.073 103.332 411.073 104.214V114.298C411.073 115.731 411.362 116.792 411.941 117.481C412.519 118.17 413.442 118.514 414.709 118.514C416.087 118.514 417.217 118.046 418.098 117.109C418.98 116.145 419.421 114.877 419.421 113.307V104.214C419.421 103.332 419.641 102.685 420.082 102.272C420.523 101.831 421.157 101.61 421.983 101.61C422.81 101.61 423.444 101.831 423.884 102.272C424.353 102.685 424.587 103.332 424.587 104.214V119.837C424.587 121.6 423.747 122.482 422.066 122.482C421.267 122.482 420.647 122.261 420.206 121.82C419.765 121.352 419.545 120.691 419.545 119.837V116.696L420.123 117.935C419.545 119.423 418.663 120.567 417.478 121.366C416.321 122.165 414.944 122.564 413.346 122.564ZM432.609 122.482C431.783 122.482 431.149 122.261 430.708 121.82C430.267 121.352 430.047 120.691 430.047 119.837V104.214C430.047 103.36 430.267 102.712 430.708 102.272C431.149 101.831 431.769 101.61 432.568 101.61C433.367 101.61 433.987 101.831 434.428 102.272C434.869 102.712 435.089 103.36 435.089 104.214V107.231L434.634 105.991C435.185 104.614 436.039 103.525 437.197 102.726C438.354 101.927 439.731 101.528 441.33 101.528C442.955 101.528 444.291 101.913 445.338 102.685C446.385 103.456 447.115 104.641 447.529 106.239H446.95C447.501 104.779 448.41 103.636 449.678 102.809C450.945 101.955 452.405 101.528 454.059 101.528C455.602 101.528 456.869 101.831 457.861 102.437C458.88 103.043 459.639 103.966 460.135 105.206C460.631 106.418 460.879 107.961 460.879 109.835V119.837C460.879 120.691 460.645 121.352 460.177 121.82C459.736 122.261 459.101 122.482 458.274 122.482C457.448 122.482 456.814 122.261 456.373 121.82C455.932 121.352 455.712 120.691 455.712 119.837V110.042C455.712 108.499 455.45 107.369 454.927 106.653C454.431 105.936 453.576 105.578 452.364 105.578C451.014 105.578 449.953 106.06 449.182 107.025C448.41 107.961 448.025 109.27 448.025 110.951V119.837C448.025 120.691 447.804 121.352 447.363 121.82C446.923 122.261 446.289 122.482 445.462 122.482C444.636 122.482 443.988 122.261 443.52 121.82C443.079 121.352 442.859 120.691 442.859 119.837V110.042C442.859 108.499 442.597 107.369 442.073 106.653C441.577 105.936 440.737 105.578 439.552 105.578C438.202 105.578 437.142 106.06 436.37 107.025C435.599 107.961 435.213 109.27 435.213 110.951V119.837C435.213 121.6 434.345 122.482 432.609 122.482Z" fill="#1C1D25"/>
</svg>
