<svg width="108" height="34" viewBox="0 0 108 34" fill="none" xmlns="http://www.w3.org/2000/svg">
<path d="M29.9399 30.738H6.62307C6.2108 30.738 5.81541 30.5767 5.52389 30.2896C5.23238 30.0025 5.0686 29.6132 5.0686 29.2072V3.18433" stroke="#1C1D25" stroke-width="3" stroke-linecap="round" stroke-linejoin="round"/>
<path d="M1.84448 9.27008L17.0571 9.24487" stroke="#1C1D25" stroke-width="3" stroke-linecap="round" stroke-linejoin="round"/>
<path d="M15.8238 4.7124H25.1722M28.1014 22.3519L23.6142 14.167V4.7124H17.3818V14.167L12.8945 22.3519C12.7683 22.5846 12.7055 22.8455 12.7121 23.1092C12.7189 23.3729 12.7949 23.6303 12.933 23.8567C13.0709 24.083 13.2661 24.2704 13.4996 24.4008C13.7331 24.5312 13.997 24.6 14.2656 24.6007H26.7303C26.999 24.6 27.2628 24.5312 27.4964 24.4008C27.7299 24.2704 27.9251 24.083 28.063 23.8567C28.201 23.6303 28.2771 23.3729 28.2838 23.1092C28.2905 22.8455 28.2277 22.5846 28.1014 22.3519Z" stroke="#6CDCED" stroke-width="3" stroke-linecap="round" stroke-linejoin="round"/>
<path d="M37.8768 14.8224C36.9 14.8224 36.0608 14.6265 35.3592 14.2349C34.6665 13.8343 34.1337 13.2734 33.7607 12.5523C33.3877 11.8223 33.2012 10.9633 33.2012 9.97511C33.2012 9.23622 33.3078 8.573 33.5209 7.98545C33.7341 7.38899 34.0404 6.88156 34.44 6.46315C34.8397 6.03584 35.3281 5.71091 35.9053 5.48835C36.4914 5.25689 37.1486 5.14116 37.8768 5.14116C38.3652 5.14116 38.8448 5.20348 39.3154 5.3281C39.786 5.45273 40.199 5.63079 40.5542 5.86224C40.7407 5.97798 40.865 6.12041 40.9272 6.28955C40.9894 6.4498 41.0027 6.61004 40.9672 6.77028C40.9316 6.92162 40.8562 7.0507 40.7407 7.15753C40.6342 7.26436 40.4966 7.32668 40.3278 7.34448C40.1679 7.35338 39.9904 7.29551 39.795 7.17088C39.5196 6.99284 39.2222 6.86375 38.9025 6.78363C38.5828 6.70351 38.2587 6.66345 37.9301 6.66345C37.2996 6.66345 36.7668 6.79254 36.3316 7.0507C35.8964 7.30887 35.5679 7.68276 35.3459 8.17239C35.1238 8.66203 35.0128 9.26293 35.0128 9.97511C35.0128 10.6784 35.1238 11.2793 35.3459 11.7778C35.5679 12.2763 35.8964 12.6547 36.3316 12.9129C36.7668 13.171 37.2996 13.3001 37.9301 13.3001C38.2675 13.3001 38.6005 13.2601 38.9291 13.1799C39.2577 13.0909 39.5685 12.9574 39.8616 12.7793C40.057 12.6636 40.2301 12.6147 40.3811 12.6325C40.5409 12.6414 40.6741 12.6948 40.7807 12.7927C40.8873 12.8906 40.9583 13.0153 40.9938 13.1666C41.0294 13.3091 41.0205 13.4604 40.9672 13.6206C40.9139 13.7719 40.8073 13.9055 40.6475 14.0212C40.2922 14.2793 39.866 14.4797 39.3687 14.6221C38.8802 14.7557 38.383 14.8224 37.8768 14.8224ZM44.9039 14.8224C44.2289 14.8224 43.6428 14.6845 43.1455 14.4085C42.6483 14.1325 42.262 13.7408 41.9866 13.2334C41.7113 12.717 41.5737 12.1117 41.5737 11.4173C41.5737 10.8921 41.6492 10.4247 41.8001 10.0152C41.96 9.59677 42.1864 9.24067 42.4795 8.9469C42.7725 8.64421 43.1233 8.4172 43.5318 8.26587C43.9404 8.10563 44.3977 8.02551 44.9039 8.02551C45.5788 8.02551 46.1649 8.16349 46.6622 8.43946C47.1595 8.71544 47.5458 9.10714 47.8211 9.61457C48.0964 10.122 48.234 10.7229 48.234 11.4173C48.234 11.9425 48.1541 12.4144 47.9943 12.8328C47.8433 13.2511 47.6213 13.6117 47.3282 13.9144C47.0352 14.2082 46.6844 14.4352 46.2759 14.5954C45.8673 14.7467 45.41 14.8224 44.9039 14.8224ZM44.9039 13.5538C45.2325 13.5538 45.521 13.4737 45.7697 13.3135C46.0184 13.1532 46.2093 12.9173 46.3425 12.6057C46.4846 12.2853 46.5556 11.8891 46.5556 11.4173C46.5556 10.7051 46.4047 10.1754 46.1027 9.82823C45.8007 9.47213 45.4011 9.29409 44.9039 9.29409C44.5752 9.29409 44.2867 9.37421 44.038 9.53445C43.7893 9.68578 43.594 9.9217 43.4519 10.2422C43.3187 10.5537 43.2521 10.9455 43.2521 11.4173C43.2521 12.1206 43.403 12.6547 43.705 13.0197C44.007 13.3758 44.4066 13.5538 44.9039 13.5538ZM50.4608 14.7957C50.1944 14.7957 49.9902 14.7245 49.8481 14.5821C49.7061 14.4308 49.635 14.2171 49.635 13.9411V8.89348C49.635 8.61751 49.7061 8.40831 49.8481 8.26587C49.9902 8.12343 50.19 8.05221 50.4475 8.05221C50.7051 8.05221 50.9049 8.12343 51.0469 8.26587C51.1891 8.40831 51.2601 8.61751 51.2601 8.89348V9.86829L51.1135 9.46768C51.2912 9.02257 51.5665 8.67092 51.9394 8.41276C52.3124 8.15459 52.7565 8.02551 53.2715 8.02551C53.7955 8.02551 54.2262 8.15013 54.5636 8.3994C54.9011 8.64867 55.1364 9.03146 55.2696 9.5478H55.0831C55.2608 9.07598 55.5538 8.70653 55.9623 8.43946C56.3708 8.16349 56.8414 8.02551 57.3743 8.02551C57.8716 8.02551 58.2801 8.12343 58.5998 8.31928C58.9284 8.51514 59.1726 8.81336 59.3324 9.21397C59.4923 9.60566 59.5722 10.1042 59.5722 10.7096V13.9411C59.5722 14.2171 59.4968 14.4308 59.3457 14.5821C59.2037 14.7245 58.9994 14.7957 58.733 14.7957C58.4666 14.7957 58.2623 14.7245 58.1202 14.5821C57.9782 14.4308 57.9071 14.2171 57.9071 13.9411V10.7763C57.9071 10.2778 57.8228 9.91279 57.654 9.68134C57.4942 9.44988 57.2189 9.33415 56.8281 9.33415C56.393 9.33415 56.0511 9.48994 55.8024 9.80152C55.5538 10.1042 55.4294 10.527 55.4294 11.0701V13.9411C55.4294 14.2171 55.3584 14.4308 55.2163 14.5821C55.0743 14.7245 54.87 14.7957 54.6036 14.7957C54.3372 14.7957 54.1285 14.7245 53.9775 14.5821C53.8355 14.4308 53.7644 14.2171 53.7644 13.9411V10.7763C53.7644 10.2778 53.68 9.91279 53.5113 9.68134C53.3514 9.44988 53.0806 9.33415 52.6987 9.33415C52.2636 9.33415 51.9217 9.48994 51.673 9.80152C51.4244 10.1042 51.3 10.527 51.3 11.0701V13.9411C51.3 14.5109 51.0203 14.7957 50.4608 14.7957ZM62.1425 14.7957C61.876 14.7957 61.6718 14.7245 61.5297 14.5821C61.3877 14.4308 61.3166 14.2171 61.3166 13.9411V8.89348C61.3166 8.61751 61.3877 8.40831 61.5297 8.26587C61.6718 8.12343 61.8716 8.05221 62.1291 8.05221C62.3867 8.05221 62.5866 8.12343 62.7286 8.26587C62.8707 8.40831 62.9417 8.61751 62.9417 8.89348V9.86829L62.7952 9.46768C62.9729 9.02257 63.2481 8.67092 63.6211 8.41276C63.994 8.15459 64.4381 8.02551 64.9531 8.02551C65.4771 8.02551 65.9078 8.15013 66.2452 8.3994C66.5828 8.64867 66.818 9.03146 66.9512 9.5478H66.7647C66.9424 9.07598 67.2355 8.70653 67.6439 8.43946C68.0524 8.16349 68.5231 8.02551 69.0559 8.02551C69.5533 8.02551 69.9617 8.12343 70.2814 8.31928C70.61 8.51514 70.8542 8.81336 71.014 9.21397C71.1739 9.60566 71.2538 10.1042 71.2538 10.7096V13.9411C71.2538 14.2171 71.1784 14.4308 71.0274 14.5821C70.8853 14.7245 70.681 14.7957 70.4146 14.7957C70.1482 14.7957 69.944 14.7245 69.8019 14.5821C69.6598 14.4308 69.5887 14.2171 69.5887 13.9411V10.7763C69.5887 10.2778 69.5044 9.91279 69.3356 9.68134C69.1758 9.44988 68.9006 9.33415 68.5097 9.33415C68.0747 9.33415 67.7327 9.48994 67.4841 9.80152C67.2355 10.1042 67.1111 10.527 67.1111 11.0701V13.9411C67.1111 14.2171 67.0401 14.4308 66.8979 14.5821C66.7559 14.7245 66.5516 14.7957 66.2852 14.7957C66.0188 14.7957 65.8102 14.7245 65.6591 14.5821C65.5171 14.4308 65.446 14.2171 65.446 13.9411V10.7763C65.446 10.2778 65.3617 9.91279 65.1929 9.68134C65.033 9.44988 64.7622 9.33415 64.3803 9.33415C63.9453 9.33415 63.6033 9.48994 63.3546 9.80152C63.1061 10.1042 62.9817 10.527 62.9817 11.0701V13.9411C62.9817 14.5109 62.7019 14.7957 62.1425 14.7957ZM75.3293 14.8224C74.7877 14.8224 74.3392 14.7245 73.9839 14.5286C73.6288 14.3239 73.3624 14.0212 73.1847 13.6206C73.016 13.22 72.9316 12.7215 72.9316 12.125V8.89348C72.9316 8.60861 73.0027 8.3994 73.1447 8.26587C73.2869 8.12343 73.4911 8.05221 73.7575 8.05221C74.0239 8.05221 74.2282 8.12343 74.3702 8.26587C74.5213 8.3994 74.5967 8.60861 74.5967 8.89348V12.1517C74.5967 12.6147 74.6899 12.9574 74.8764 13.1799C75.0629 13.4025 75.3605 13.5138 75.7689 13.5138C76.213 13.5138 76.5771 13.3625 76.8612 13.0598C77.1454 12.7482 77.2875 12.3387 77.2875 11.8312V8.89348C77.2875 8.60861 77.3586 8.3994 77.5006 8.26587C77.6427 8.12343 77.8469 8.05221 78.1133 8.05221C78.3798 8.05221 78.5841 8.12343 78.7261 8.26587C78.8771 8.3994 78.9525 8.60861 78.9525 8.89348V13.9411C78.9525 14.5109 78.6817 14.7957 78.14 14.7957C77.8825 14.7957 77.6827 14.7245 77.5406 14.5821C77.3985 14.4308 77.3274 14.2171 77.3274 13.9411V12.9262L77.5139 13.3268C77.3274 13.8076 77.0433 14.177 76.6614 14.4352C76.2884 14.6933 75.8444 14.8224 75.3293 14.8224ZM81.5115 14.7957C81.245 14.7957 81.0408 14.7245 80.8987 14.5821C80.7567 14.4308 80.6856 14.2171 80.6856 13.9411V8.89348C80.6856 8.61751 80.7567 8.40831 80.8987 8.26587C81.0408 8.12343 81.2406 8.05221 81.4981 8.05221C81.7557 8.05221 81.9555 8.12343 82.0976 8.26587C82.2397 8.40831 82.3107 8.61751 82.3107 8.89348V9.80152L82.1642 9.46768C82.3596 8.99586 82.6615 8.63977 83.07 8.3994C83.4874 8.15013 83.9581 8.02551 84.482 8.02551C85.006 8.02551 85.4366 8.12343 85.7741 8.31928C86.1116 8.51514 86.3647 8.81336 86.5334 9.21397C86.7021 9.60566 86.7864 10.1042 86.7864 10.7096V13.9411C86.7864 14.2171 86.7154 14.4308 86.5733 14.5821C86.4313 14.7245 86.227 14.7957 85.9606 14.7957C85.6941 14.7957 85.4855 14.7245 85.3345 14.5821C85.1925 14.4308 85.1214 14.2171 85.1214 13.9411V10.7897C85.1214 10.2822 85.0237 9.91279 84.8283 9.68134C84.6418 9.44988 84.3488 9.33415 83.9491 9.33415C83.4608 9.33415 83.07 9.48994 82.7769 9.80152C82.4928 10.1042 82.3507 10.5093 82.3507 11.0167V13.9411C82.3507 14.5109 82.0709 14.7957 81.5115 14.7957ZM89.3035 14.7824C89.0371 14.7824 88.8329 14.7022 88.6908 14.542C88.5488 14.3818 88.4777 14.1592 88.4777 13.8743V8.9736C88.4777 8.67983 88.5488 8.45727 88.6908 8.30593C88.8329 8.14569 89.0371 8.06557 89.3035 8.06557C89.57 8.06557 89.7743 8.14569 89.9163 8.30593C90.0673 8.45727 90.1427 8.67983 90.1427 8.9736V13.8743C90.1427 14.1592 90.0717 14.3818 89.9296 14.542C89.7876 14.7022 89.5789 14.7824 89.3035 14.7824ZM89.3035 6.82369C88.9928 6.82369 88.7486 6.74802 88.5709 6.59668C88.4022 6.43644 88.3178 6.21834 88.3178 5.94236C88.3178 5.65749 88.4022 5.43938 88.5709 5.28804C88.7486 5.13671 88.9928 5.06104 89.3035 5.06104C89.6232 5.06104 89.8675 5.13671 90.0362 5.28804C90.2049 5.43938 90.2893 5.65749 90.2893 5.94236C90.2893 6.21834 90.2049 6.43644 90.0362 6.59668C89.8675 6.74802 89.6232 6.82369 89.3035 6.82369ZM94.8567 14.8224C94.2795 14.8224 93.7955 14.7245 93.4048 14.5286C93.0229 14.3328 92.7387 14.0479 92.5522 13.674C92.3658 13.2912 92.2725 12.8194 92.2725 12.2586V9.41427H91.5798C91.3667 9.41427 91.2025 9.36085 91.087 9.25403C90.9715 9.13829 90.9138 8.98251 90.9138 8.78665C90.9138 8.5819 90.9715 8.42611 91.087 8.31928C91.2025 8.21245 91.3667 8.15904 91.5798 8.15904H92.2725V6.94387C92.2725 6.6679 92.3435 6.4587 92.4856 6.31626C92.6366 6.17382 92.8453 6.10261 93.1117 6.10261C93.3781 6.10261 93.5823 6.17382 93.7245 6.31626C93.8666 6.4587 93.9376 6.6679 93.9376 6.94387V8.15904H95.3496C95.5627 8.15904 95.727 8.21245 95.8425 8.31928C95.9579 8.42611 96.0156 8.5819 96.0156 8.78665C96.0156 8.98251 95.9579 9.13829 95.8425 9.25403C95.727 9.36085 95.5627 9.41427 95.3496 9.41427H93.9376V12.1651C93.9376 12.5924 94.0308 12.9129 94.2173 13.1265C94.4038 13.3402 94.7058 13.447 95.1231 13.447C95.2741 13.447 95.4073 13.4337 95.5228 13.407C95.6382 13.3802 95.7403 13.3625 95.8291 13.3535C95.9357 13.3446 96.0245 13.3802 96.0956 13.4604C96.1666 13.5316 96.2021 13.683 96.2021 13.9144C96.2021 14.0924 96.1711 14.2526 96.1089 14.3951C96.0556 14.5286 95.9534 14.6221 95.8025 14.6755C95.687 14.7112 95.5361 14.7423 95.3496 14.769C95.1631 14.8047 94.9988 14.8224 94.8567 14.8224ZM98.741 17.1993C98.5457 17.1993 98.3859 17.1459 98.2615 17.0391C98.1372 16.9412 98.0617 16.8077 98.035 16.6385C98.0173 16.4693 98.0484 16.2913 98.1283 16.1044L99.0341 14.088V14.7824L96.6097 9.16055C96.5298 8.9647 96.5032 8.78221 96.5298 8.61306C96.5564 8.44391 96.6364 8.31038 96.7696 8.21245C96.9117 8.10563 97.1026 8.05221 97.3424 8.05221C97.5467 8.05221 97.7109 8.10118 97.8352 8.1991C97.9596 8.28813 98.0706 8.46172 98.1682 8.71989L99.9665 13.22H99.5669L101.405 8.70653C101.503 8.45727 101.618 8.28813 101.752 8.1991C101.885 8.10118 102.062 8.05221 102.284 8.05221C102.48 8.05221 102.635 8.10563 102.751 8.21245C102.866 8.31038 102.937 8.44391 102.964 8.61306C102.99 8.7733 102.96 8.95134 102.87 9.1472L99.6335 16.5584C99.5181 16.8077 99.3938 16.9768 99.2605 17.0658C99.1273 17.1549 98.9542 17.1993 98.741 17.1993ZM35.433 27.4158C35.1624 27.4158 34.8919 27.3942 34.6214 27.3511C34.3509 27.3141 34.0958 27.2555 33.856 27.1754C33.6162 27.0891 33.401 26.9844 33.2104 26.8611C33.0998 26.7871 33.0229 26.6978 32.9799 26.593C32.9369 26.4882 32.9215 26.3865 32.9338 26.2879C32.9522 26.1831 32.9922 26.0938 33.0537 26.0198C33.1213 25.9397 33.2043 25.8904 33.3027 25.8719C33.401 25.8534 33.5086 25.8812 33.6254 25.9551C33.8959 26.1154 34.1818 26.2325 34.4831 26.3064C34.7843 26.3804 35.101 26.4173 35.433 26.4173C35.9186 26.4173 36.2722 26.3372 36.4935 26.177C36.7148 26.0106 36.8255 25.798 36.8255 25.5391C36.8255 25.3234 36.7455 25.1539 36.5857 25.0306C36.432 24.9074 36.1646 24.8057 35.7834 24.7256L34.769 24.5129C34.1849 24.3897 33.7484 24.1832 33.4594 23.8935C33.1766 23.5977 33.0352 23.2094 33.0352 22.7287C33.0352 22.4267 33.0967 22.1525 33.2197 21.9059C33.3426 21.6594 33.5148 21.4468 33.7361 21.268C33.9636 21.0893 34.231 20.9537 34.5384 20.8613C34.852 20.7627 35.1963 20.7134 35.5713 20.7134C35.9402 20.7134 36.2906 20.7596 36.6226 20.852C36.9546 20.9445 37.2528 21.0801 37.5171 21.2588C37.6155 21.3266 37.68 21.4098 37.7108 21.5084C37.7477 21.607 37.7569 21.7056 37.7385 21.8042C37.72 21.8967 37.677 21.9768 37.6093 22.0446C37.5417 22.1124 37.4556 22.1525 37.3511 22.1648C37.2528 22.1771 37.139 22.1463 37.0099 22.0723C36.7824 21.9429 36.5519 21.8505 36.3183 21.795C36.0846 21.7395 35.8326 21.7118 35.5621 21.7118C35.2793 21.7118 35.0364 21.7518 34.8335 21.832C34.6306 21.9121 34.4739 22.0261 34.3632 22.174C34.2587 22.3158 34.2064 22.4853 34.2064 22.6825C34.2064 22.9044 34.2802 23.0831 34.4278 23.2187C34.5753 23.3481 34.8274 23.4498 35.184 23.5238L36.1892 23.7364C36.7978 23.8658 37.2497 24.0692 37.5448 24.3465C37.846 24.6239 37.9967 24.9937 37.9967 25.4559C37.9967 25.7517 37.9352 26.0198 37.8122 26.2602C37.6954 26.5006 37.5233 26.707 37.2958 26.8796C37.0745 27.0522 36.807 27.1847 36.4935 27.2771C36.1799 27.3696 35.8264 27.4158 35.433 27.4158ZM40.9833 27.4158C40.5099 27.4158 40.098 27.3202 39.7475 27.1292C39.3971 26.932 39.1266 26.6546 38.936 26.2972C38.7454 25.9397 38.6501 25.5206 38.6501 25.0399C38.6501 24.6763 38.7024 24.3527 38.8069 24.0692C38.9175 23.7795 39.0743 23.5361 39.2772 23.3389C39.4801 23.1355 39.726 22.9814 40.015 22.8766C40.3039 22.7657 40.6267 22.7102 40.9833 22.7102C41.1862 22.7102 41.4044 22.738 41.638 22.7934C41.8778 22.8489 42.1022 22.9413 42.3112 23.0708C42.4096 23.1324 42.4742 23.2064 42.5049 23.2926C42.5356 23.3789 42.5418 23.4683 42.5233 23.5607C42.5049 23.647 42.4649 23.7241 42.4035 23.7918C42.3481 23.8535 42.2774 23.8935 42.1914 23.912C42.1053 23.9244 42.01 23.9028 41.9055 23.8473C41.7702 23.7672 41.6319 23.7086 41.4905 23.6717C41.3491 23.6285 41.2138 23.607 41.0847 23.607C40.8818 23.607 40.7035 23.6409 40.5498 23.7086C40.3961 23.7703 40.264 23.8627 40.1533 23.986C40.0488 24.1031 39.9688 24.251 39.9135 24.4297C39.8582 24.6085 39.8305 24.8149 39.8305 25.0491C39.8305 25.5052 39.9381 25.8657 40.1533 26.1308C40.3746 26.3896 40.6851 26.519 41.0847 26.519C41.2138 26.519 41.346 26.5006 41.4813 26.4636C41.6227 26.4266 41.7641 26.368 41.9055 26.2879C42.01 26.2325 42.1022 26.214 42.1821 26.2325C42.2682 26.2509 42.3389 26.2941 42.3942 26.3619C42.4496 26.4235 42.4834 26.5006 42.4957 26.593C42.508 26.6793 42.4957 26.7656 42.4588 26.8519C42.4281 26.9381 42.3666 27.009 42.2744 27.0645C42.0715 27.1877 41.8563 27.2771 41.6288 27.3326C41.4013 27.388 41.1862 27.4158 40.9833 27.4158ZM43.8208 27.388C43.6363 27.388 43.4949 27.3326 43.3966 27.2216C43.2982 27.1107 43.249 26.9566 43.249 26.7594V23.3666C43.249 23.1632 43.2982 23.0091 43.3966 22.9044C43.4949 22.7934 43.6363 22.738 43.8208 22.738C44.0052 22.738 44.1466 22.7934 44.245 22.9044C44.3495 23.0091 44.4018 23.1632 44.4018 23.3666V26.7594C44.4018 26.9566 44.3526 27.1107 44.2542 27.2216C44.1558 27.3326 44.0114 27.388 43.8208 27.388ZM43.8208 21.8782C43.6056 21.8782 43.4365 21.8258 43.3136 21.721C43.1968 21.6101 43.1384 21.4591 43.1384 21.268C43.1384 21.0708 43.1968 20.9198 43.3136 20.8151C43.4365 20.7103 43.6056 20.6579 43.8208 20.6579C44.0421 20.6579 44.2112 20.7103 44.328 20.8151C44.4448 20.9198 44.5032 21.0708 44.5032 21.268C44.5032 21.4591 44.4448 21.6101 44.328 21.721C44.2112 21.8258 44.0421 21.8782 43.8208 21.8782ZM47.822 27.4158C47.3117 27.4158 46.8721 27.3202 46.5033 27.1292C46.1344 26.9381 45.8485 26.667 45.6456 26.3157C45.4489 25.9644 45.3505 25.5483 45.3505 25.0676C45.3505 24.5992 45.4458 24.1894 45.6364 23.8381C45.8331 23.4868 46.1006 23.2125 46.4387 23.0153C46.783 22.8119 47.1734 22.7102 47.6099 22.7102C47.9296 22.7102 48.2155 22.7626 48.4675 22.8674C48.7258 22.9722 48.944 23.1231 49.1223 23.3204C49.3068 23.5176 49.4451 23.758 49.5373 24.0415C49.6357 24.3188 49.6849 24.6331 49.6849 24.9844C49.6849 25.0954 49.6449 25.1816 49.565 25.2433C49.4912 25.2987 49.3836 25.3265 49.2422 25.3265H46.2819V24.6609H48.8733L48.7258 24.7995C48.7258 24.516 48.6827 24.2787 48.5967 24.0877C48.5167 23.8966 48.3968 23.7518 48.237 23.6532C48.0833 23.5484 47.8896 23.496 47.656 23.496C47.3978 23.496 47.1765 23.5576 46.992 23.6809C46.8137 23.798 46.6754 23.9675 46.577 24.1894C46.4848 24.4051 46.4387 24.6639 46.4387 24.9659V25.0306C46.4387 25.536 46.5555 25.9151 46.7891 26.1677C47.0289 26.4143 47.3794 26.5375 47.8405 26.5375C48.0003 26.5375 48.1786 26.519 48.3753 26.4821C48.5782 26.4389 48.7688 26.368 48.9471 26.2694C49.0762 26.1955 49.1899 26.1647 49.2883 26.177C49.3867 26.1831 49.4635 26.217 49.5189 26.2787C49.5803 26.3403 49.6172 26.4173 49.6295 26.5098C49.6418 26.5961 49.6234 26.6854 49.5742 26.7779C49.5312 26.8703 49.4543 26.9505 49.3436 27.0183C49.1285 27.1538 48.8795 27.2555 48.5967 27.3233C48.32 27.385 48.0618 27.4158 47.822 27.4158ZM51.1695 27.3973C50.9851 27.3973 50.8437 27.348 50.7453 27.2494C50.6469 27.1446 50.5977 26.9967 50.5977 26.8056V23.3111C50.5977 23.1201 50.6469 22.9752 50.7453 22.8766C50.8437 22.778 50.982 22.7287 51.1603 22.7287C51.3386 22.7287 51.4769 22.778 51.5753 22.8766C51.6736 22.9752 51.7228 23.1201 51.7228 23.3111V23.9398L51.6214 23.7086C51.7566 23.382 51.9657 23.1355 52.2485 22.9691C52.5374 22.7965 52.8633 22.7102 53.226 22.7102C53.5887 22.7102 53.8869 22.778 54.1205 22.9136C54.3542 23.0492 54.5294 23.2557 54.6462 23.533C54.763 23.8042 54.8214 24.1493 54.8214 24.5684V26.8056C54.8214 26.9967 54.7722 27.1446 54.6739 27.2494C54.5755 27.348 54.4341 27.3973 54.2496 27.3973C54.0652 27.3973 53.9207 27.348 53.8162 27.2494C53.7178 27.1446 53.6687 26.9967 53.6687 26.8056V24.6239C53.6687 24.2726 53.601 24.0168 53.4658 23.8566C53.3367 23.6963 53.1338 23.6162 52.8571 23.6162C52.519 23.6162 52.2485 23.7241 52.0456 23.9398C51.8489 24.1493 51.7505 24.4297 51.7505 24.781V26.8056C51.7505 27.2001 51.5568 27.3973 51.1695 27.3973ZM58.0765 27.4158C57.6031 27.4158 57.1912 27.3202 56.8407 27.1292C56.4903 26.932 56.2198 26.6546 56.0292 26.2972C55.8386 25.9397 55.7433 25.5206 55.7433 25.0399C55.7433 24.6763 55.7956 24.3527 55.9001 24.0692C56.0107 23.7795 56.1675 23.5361 56.3704 23.3389C56.5733 23.1355 56.8192 22.9814 57.1082 22.8766C57.3971 22.7657 57.7199 22.7102 58.0765 22.7102C58.2794 22.7102 58.4976 22.738 58.7312 22.7934C58.971 22.8489 59.1954 22.9413 59.4044 23.0708C59.5028 23.1324 59.5674 23.2064 59.5981 23.2926C59.6288 23.3789 59.635 23.4683 59.6166 23.5607C59.5981 23.647 59.5581 23.7241 59.4967 23.7918C59.4413 23.8535 59.3706 23.8935 59.2846 23.912C59.1985 23.9244 59.1032 23.9028 58.9987 23.8473C58.8634 23.7672 58.7251 23.7086 58.5837 23.6717C58.4423 23.6285 58.307 23.607 58.1779 23.607C57.975 23.607 57.7967 23.6409 57.643 23.7086C57.4893 23.7703 57.3572 23.8627 57.2465 23.986C57.142 24.1031 57.0621 24.251 57.0067 24.4297C56.9514 24.6085 56.9237 24.8149 56.9237 25.0491C56.9237 25.5052 57.0313 25.8657 57.2465 26.1308C57.4678 26.3896 57.7783 26.519 58.1779 26.519C58.307 26.519 58.4392 26.5006 58.5745 26.4636C58.7159 26.4266 58.8573 26.368 58.9987 26.2879C59.1032 26.2325 59.1954 26.214 59.2753 26.2325C59.3614 26.2509 59.4321 26.2941 59.4874 26.3619C59.5428 26.4235 59.5766 26.5006 59.5889 26.593C59.6012 26.6793 59.5889 26.7656 59.552 26.8519C59.5213 26.9381 59.4598 27.009 59.3676 27.0645C59.1647 27.1877 58.9495 27.2771 58.722 27.3326C58.4945 27.388 58.2794 27.4158 58.0765 27.4158ZM62.4746 27.4158C61.9643 27.4158 61.5247 27.3202 61.1558 27.1292C60.7869 26.9381 60.501 26.667 60.2982 26.3157C60.1014 25.9644 60.0031 25.5483 60.0031 25.0676C60.0031 24.5992 60.0983 24.1894 60.2889 23.8381C60.4857 23.4868 60.7531 23.2125 61.0913 23.0153C61.4355 22.8119 61.8259 22.7102 62.2624 22.7102C62.5821 22.7102 62.868 22.7626 63.1201 22.8674C63.3783 22.9722 63.5966 23.1231 63.7749 23.3204C63.9593 23.5176 64.0976 23.758 64.1898 24.0415C64.2882 24.3188 64.3374 24.6331 64.3374 24.9844C64.3374 25.0954 64.2974 25.1816 64.2175 25.2433C64.1437 25.2987 64.0361 25.3265 63.8947 25.3265H60.9345V24.6609H63.5259L63.3783 24.7995C63.3783 24.516 63.3353 24.2787 63.2492 24.0877C63.1693 23.8966 63.0494 23.7518 62.8895 23.6532C62.7358 23.5484 62.5422 23.496 62.3086 23.496C62.0503 23.496 61.829 23.5576 61.6446 23.6809C61.4663 23.798 61.328 23.9675 61.2296 24.1894C61.1374 24.4051 61.0913 24.6639 61.0913 24.9659V25.0306C61.0913 25.536 61.2081 25.9151 61.4417 26.1677C61.6815 26.4143 62.0319 26.5375 62.493 26.5375C62.6528 26.5375 62.8311 26.519 63.0279 26.4821C63.2308 26.4389 63.4213 26.368 63.5996 26.2694C63.7287 26.1955 63.8425 26.1647 63.9409 26.177C64.0392 26.1831 64.1161 26.217 64.1714 26.2787C64.2329 26.3403 64.2698 26.4173 64.2821 26.5098C64.2944 26.5961 64.2759 26.6854 64.2267 26.7779C64.1837 26.8703 64.1069 26.9505 63.9962 27.0183C63.781 27.1538 63.532 27.2555 63.2492 27.3233C62.9725 27.385 62.7143 27.4158 62.4746 27.4158ZM68.4179 27.3973C68.2458 27.3973 68.1136 27.348 68.0214 27.2494C67.9292 27.1508 67.8831 27.0152 67.8831 26.8426V21.2865C67.8831 21.1078 67.9322 20.9722 68.0306 20.8798C68.129 20.7812 68.2642 20.7319 68.4364 20.7319C68.5901 20.7319 68.71 20.7627 68.796 20.8243C68.8883 20.8798 68.9713 20.9784 69.045 21.1201L71.3229 25.345H71.0278L73.3056 21.1201C73.3794 20.9784 73.4593 20.8798 73.5454 20.8243C73.6314 20.7627 73.7513 20.7319 73.905 20.7319C74.0772 20.7319 74.2094 20.7812 74.3016 20.8798C74.3938 20.9722 74.4399 21.1078 74.4399 21.2865V26.8426C74.4399 27.0152 74.3938 27.1508 74.3016 27.2494C74.2155 27.348 74.0833 27.3973 73.905 27.3973C73.7329 27.3973 73.6007 27.348 73.5085 27.2494C73.4163 27.1508 73.3702 27.0152 73.3702 26.8426V22.5623H73.573L71.6364 26.103C71.5749 26.2078 71.5104 26.2848 71.4428 26.3341C71.3751 26.3835 71.2829 26.4081 71.1661 26.4081C71.0493 26.4081 70.954 26.3835 70.8802 26.3341C70.8064 26.2787 70.7419 26.2016 70.6866 26.103L68.7315 22.5531H68.9528V26.8426C68.9528 27.0152 68.9067 27.1508 68.8145 27.2494C68.7284 27.348 68.5962 27.3973 68.4179 27.3973ZM77.3925 27.4158C77.0175 27.4158 76.707 27.348 76.4611 27.2124C76.2151 27.0706 76.0307 26.8611 75.9077 26.5838C75.7909 26.3064 75.7325 25.9613 75.7325 25.5483V23.3111C75.7325 23.1139 75.7817 22.9691 75.8801 22.8766C75.9784 22.778 76.1199 22.7287 76.3043 22.7287C76.4887 22.7287 76.6301 22.778 76.7285 22.8766C76.833 22.9691 76.8853 23.1139 76.8853 23.3111V25.5668C76.8853 25.8873 76.9498 26.1246 77.0789 26.2787C77.2081 26.4328 77.414 26.5098 77.6968 26.5098C78.0042 26.5098 78.2563 26.405 78.453 26.1955C78.6498 25.9798 78.7481 25.6963 78.7481 25.345V23.3111C78.7481 23.1139 78.7973 22.9691 78.8957 22.8766C78.994 22.778 79.1355 22.7287 79.3199 22.7287C79.5043 22.7287 79.6457 22.778 79.7441 22.8766C79.8486 22.9691 79.9009 23.1139 79.9009 23.3111V26.8056C79.9009 27.2001 79.7134 27.3973 79.3383 27.3973C79.16 27.3973 79.0217 27.348 78.9233 27.2494C78.825 27.1446 78.7758 26.9967 78.7758 26.8056V26.103L78.9049 26.3804C78.7758 26.7132 78.5791 26.969 78.3147 27.1477C78.0565 27.3264 77.7491 27.4158 77.3925 27.4158ZM82.7514 27.4158C82.487 27.4158 82.2073 27.388 81.9122 27.3326C81.6171 27.2771 81.3527 27.1816 81.1191 27.046C81.0207 26.9844 80.95 26.9135 80.907 26.8334C80.8701 26.7471 80.8547 26.6639 80.8609 26.5838C80.8732 26.4975 80.9039 26.4235 80.9531 26.3619C81.0084 26.3003 81.0761 26.2602 81.156 26.2417C81.2421 26.2232 81.3343 26.2386 81.4327 26.2879C81.6786 26.405 81.9091 26.4882 82.1243 26.5375C82.3395 26.5807 82.5516 26.6022 82.7606 26.6022C83.0557 26.6022 83.274 26.5529 83.4154 26.4543C83.5629 26.3496 83.6367 26.214 83.6367 26.0476C83.6367 25.9058 83.5875 25.798 83.4892 25.724C83.3969 25.6439 83.2555 25.5853 83.065 25.5483L82.1428 25.3727C81.7616 25.2987 81.4695 25.1601 81.2667 24.9567C81.0699 24.7471 80.9716 24.479 80.9716 24.1524C80.9716 23.8566 81.0515 23.6008 81.2113 23.3851C81.3773 23.1694 81.6048 23.003 81.8938 22.8859C82.1827 22.7688 82.5147 22.7102 82.8897 22.7102C83.1602 22.7102 83.4123 22.741 83.6459 22.8027C83.8857 22.8581 84.1163 22.9475 84.3376 23.0708C84.4298 23.1201 84.4913 23.1848 84.522 23.2649C84.5589 23.345 84.5681 23.4282 84.5497 23.5145C84.5313 23.5946 84.4944 23.6686 84.439 23.7364C84.3837 23.798 84.313 23.8381 84.2269 23.8566C84.147 23.8689 84.0548 23.8504 83.9503 23.8011C83.7597 23.7025 83.5752 23.6316 83.3969 23.5885C83.2248 23.5453 83.0588 23.5238 82.899 23.5238C82.5977 23.5238 82.3733 23.5761 82.2257 23.6809C82.0843 23.7857 82.0136 23.9244 82.0136 24.0969C82.0136 24.2264 82.0567 24.3342 82.1428 24.4205C82.2288 24.5068 82.361 24.5653 82.5393 24.5961L83.4615 24.7718C83.8611 24.8457 84.1624 24.9813 84.3653 25.1786C84.5743 25.3758 84.6788 25.6408 84.6788 25.9736C84.6788 26.4235 84.5036 26.7779 84.1531 27.0367C83.8027 27.2894 83.3355 27.4158 82.7514 27.4158ZM87.8261 27.4158C87.3158 27.4158 86.8762 27.3202 86.5073 27.1292C86.1384 26.9381 85.8526 26.667 85.6497 26.3157C85.4529 25.9644 85.3546 25.5483 85.3546 25.0676C85.3546 24.5992 85.4499 24.1894 85.6405 23.8381C85.8372 23.4868 86.1046 23.2125 86.4428 23.0153C86.7871 22.8119 87.1775 22.7102 87.614 22.7102C87.9337 22.7102 88.2195 22.7626 88.4716 22.8674C88.7298 22.9722 88.9481 23.1231 89.1264 23.3204C89.3108 23.5176 89.4491 23.758 89.5414 24.0415C89.6397 24.3188 89.6889 24.6331 89.6889 24.9844C89.6889 25.0954 89.649 25.1816 89.569 25.2433C89.4953 25.2987 89.3877 25.3265 89.2463 25.3265H86.286V24.6609H88.8774L88.7298 24.7995C88.7298 24.516 88.6868 24.2787 88.6007 24.0877C88.5208 23.8966 88.4009 23.7518 88.2411 23.6532C88.0874 23.5484 87.8937 23.496 87.6601 23.496C87.4019 23.496 87.1805 23.5576 86.9961 23.6809C86.8178 23.798 86.6795 23.9675 86.5811 24.1894C86.4889 24.4051 86.4428 24.6639 86.4428 24.9659V25.0306C86.4428 25.536 86.5596 25.9151 86.7932 26.1677C87.033 26.4143 87.3834 26.5375 87.8445 26.5375C88.0044 26.5375 88.1827 26.519 88.3794 26.4821C88.5823 26.4389 88.7729 26.368 88.9512 26.2694C89.0803 26.1955 89.194 26.1647 89.2924 26.177C89.3907 26.1831 89.4676 26.217 89.5229 26.2787C89.5844 26.3403 89.6213 26.4173 89.6336 26.5098C89.6459 26.5961 89.6274 26.6854 89.5783 26.7779C89.5352 26.8703 89.4584 26.9505 89.3477 27.0183C89.1325 27.1538 88.8835 27.2555 88.6007 27.3233C88.3241 27.385 88.0658 27.4158 87.8261 27.4158ZM92.2341 27.4158C91.8591 27.4158 91.5486 27.348 91.3027 27.2124C91.0567 27.0706 90.8723 26.8611 90.7493 26.5838C90.6325 26.3064 90.5741 25.9613 90.5741 25.5483V23.3111C90.5741 23.1139 90.6233 22.9691 90.7217 22.8766C90.82 22.778 90.9615 22.7287 91.1459 22.7287C91.3303 22.7287 91.4717 22.778 91.5701 22.8766C91.6746 22.9691 91.7269 23.1139 91.7269 23.3111V25.5668C91.7269 25.8873 91.7914 26.1246 91.9205 26.2787C92.0497 26.4328 92.2556 26.5098 92.5384 26.5098C92.8458 26.5098 93.0979 26.405 93.2946 26.1955C93.4914 25.9798 93.5897 25.6963 93.5897 25.345V23.3111C93.5897 23.1139 93.6389 22.9691 93.7373 22.8766C93.8356 22.778 93.9771 22.7287 94.1615 22.7287C94.3459 22.7287 94.4873 22.778 94.5857 22.8766C94.6902 22.9691 94.7425 23.1139 94.7425 23.3111V26.8056C94.7425 27.2001 94.555 27.3973 94.1799 27.3973C94.0016 27.3973 93.8633 27.348 93.7649 27.2494C93.6666 27.1446 93.6174 26.9967 93.6174 26.8056V26.103L93.7465 26.3804C93.6174 26.7132 93.4207 26.969 93.1563 27.1477C92.8981 27.3264 92.5907 27.4158 92.2341 27.4158ZM96.5326 27.3973C96.3481 27.3973 96.2067 27.348 96.1084 27.2494C96.01 27.1446 95.9608 26.9967 95.9608 26.8056V23.3111C95.9608 23.1201 96.01 22.9752 96.1084 22.8766C96.2067 22.778 96.3451 22.7287 96.5234 22.7287C96.7016 22.7287 96.84 22.778 96.9383 22.8766C97.0367 22.9752 97.0859 23.1201 97.0859 23.3111V23.986L96.9845 23.7086C97.1074 23.4005 97.298 23.157 97.5562 22.9783C97.8144 22.7996 98.1218 22.7102 98.4784 22.7102C98.8412 22.7102 99.1393 22.7965 99.373 22.9691C99.6066 23.1416 99.7695 23.4067 99.8617 23.7641H99.7326C99.8556 23.4375 100.058 23.1817 100.341 22.9968C100.624 22.8057 100.95 22.7102 101.319 22.7102C101.663 22.7102 101.946 22.778 102.167 22.9136C102.395 23.0492 102.564 23.2557 102.675 23.533C102.785 23.8042 102.841 24.1493 102.841 24.5684V26.8056C102.841 26.9967 102.788 27.1446 102.684 27.2494C102.586 27.348 102.444 27.3973 102.259 27.3973C102.075 27.3973 101.934 27.348 101.835 27.2494C101.737 27.1446 101.688 26.9967 101.688 26.8056V24.6146C101.688 24.2695 101.629 24.0168 101.512 23.8566C101.402 23.6963 101.211 23.6162 100.941 23.6162C100.639 23.6162 100.403 23.7241 100.231 23.9398C100.058 24.1493 99.9724 24.4421 99.9724 24.818V26.8056C99.9724 26.9967 99.9232 27.1446 99.8248 27.2494C99.7265 27.348 99.5851 27.3973 99.4006 27.3973C99.2162 27.3973 99.0717 27.348 98.9672 27.2494C98.8688 27.1446 98.8196 26.9967 98.8196 26.8056V24.6146C98.8196 24.2695 98.7612 24.0168 98.6444 23.8566C98.5338 23.6963 98.3462 23.6162 98.0819 23.6162C97.7806 23.6162 97.5439 23.7241 97.3718 23.9398C97.1996 24.1493 97.1136 24.4421 97.1136 24.818V26.8056C97.1136 27.2001 96.9199 27.3973 96.5326 27.3973Z" fill="#1C1D25"/>
</svg>
