<svg width="952" height="299" viewBox="0 0 952 299" fill="none" xmlns="http://www.w3.org/2000/svg">
<path d="M263.914 270.313H58.3803C54.7462 270.313 51.261 268.895 48.6913 266.37C46.1216 263.845 44.678 260.422 44.678 256.851V28.0029" stroke="#1C1D25" stroke-width="35" stroke-linecap="round" stroke-linejoin="round"/>
<path d="M16.2581 81.5222L150.355 81.3005" stroke="#1C1D25" stroke-width="25" stroke-linecap="round" stroke-linejoin="round"/>
<path d="M139.483 41.4414H221.888M247.709 196.565L208.155 124.586V41.4414H153.217V124.586L113.663 196.565C112.55 198.612 111.996 200.906 112.055 203.225C112.115 205.544 112.785 207.808 114.001 209.799C115.217 211.789 116.938 213.436 118.996 214.584C121.055 215.73 123.381 216.335 125.749 216.342H235.623C237.991 216.335 240.317 215.73 242.375 214.584C244.434 213.436 246.154 211.789 247.37 209.799C248.587 207.808 249.257 205.544 249.316 203.225C249.375 200.906 248.821 198.612 247.709 196.565Z" stroke="#6CDCED" stroke-width="25" stroke-linecap="round" stroke-linejoin="round"/>
<path d="M333.878 130.35C325.267 130.35 317.87 128.627 311.685 125.183C305.579 121.66 300.883 116.728 297.595 110.386C294.307 103.966 292.663 96.4118 292.663 87.7218C292.663 81.2239 293.603 75.3915 295.481 70.2244C297.36 64.9791 300.061 60.5167 303.583 56.8372C307.106 53.0794 311.412 50.2219 316.499 48.2647C321.666 46.2292 327.458 45.2114 333.878 45.2114C338.183 45.2114 342.41 45.7595 346.559 46.8555C350.707 47.9515 354.347 49.5173 357.479 51.5528C359.123 52.5705 360.218 53.8231 360.767 55.3106C361.315 56.7198 361.432 58.129 361.119 59.5381C360.805 60.869 360.141 62.0042 359.123 62.9437C358.183 63.8831 356.97 64.4312 355.483 64.5877C354.074 64.666 352.508 64.1571 350.786 63.0611C348.359 61.4954 345.737 60.3602 342.919 59.6556C340.101 58.951 337.244 58.5987 334.347 58.5987C328.79 58.5987 324.093 59.7339 320.257 62.0042C316.421 64.2745 313.525 67.5626 311.568 71.8685C309.611 76.1744 308.632 81.4588 308.632 87.7218C308.632 93.9069 309.611 99.1913 311.568 103.575C313.525 107.959 316.421 111.287 320.257 113.557C324.093 115.827 328.79 116.962 334.347 116.962C337.322 116.962 340.257 116.61 343.154 115.905C346.05 115.122 348.79 113.948 351.373 112.383C353.095 111.364 354.622 110.935 355.952 111.091C357.361 111.169 358.536 111.639 359.475 112.5C360.414 113.361 361.04 114.457 361.354 115.788C361.667 117.041 361.588 118.372 361.119 119.781C360.649 121.111 359.71 122.286 358.301 123.304C355.169 125.574 351.412 127.335 347.028 128.588C342.723 129.762 338.339 130.35 333.878 130.35ZM395.82 130.35C389.87 130.35 384.704 129.136 380.32 126.709C375.937 124.282 372.532 120.838 370.105 116.375C367.678 111.834 366.465 106.511 366.465 100.404C366.465 95.7858 367.131 91.6757 368.461 88.0741C369.87 84.3946 371.866 81.2631 374.45 78.6796C377.033 76.0177 380.124 74.0214 383.726 72.6905C387.327 71.2813 391.358 70.5767 395.82 70.5767C401.769 70.5767 406.936 71.7902 411.319 74.2171C415.703 76.6441 419.108 80.0887 421.535 84.5512C423.962 89.0136 425.175 94.298 425.175 100.404C425.175 105.023 424.47 109.173 423.061 112.852C421.731 116.532 419.773 119.702 417.19 122.364C414.607 124.948 411.515 126.944 407.914 128.353C404.313 129.684 400.282 130.35 395.82 130.35ZM395.82 119.194C398.716 119.194 401.26 118.489 403.452 117.08C405.644 115.671 407.327 113.596 408.501 110.856C409.754 108.038 410.38 104.553 410.38 100.404C410.38 94.1417 409.049 89.4833 406.388 86.4301C403.726 83.2985 400.203 81.7328 395.82 81.7328C392.923 81.7328 390.38 82.4374 388.188 83.8466C385.995 85.1774 384.274 87.2521 383.021 90.0705C381.847 92.8102 381.26 96.2555 381.26 100.404C381.26 106.59 382.59 111.287 385.252 114.496C387.914 117.628 391.436 119.194 395.82 119.194ZM444.804 130.115C442.455 130.115 440.655 129.489 439.402 128.236C438.15 126.905 437.524 125.026 437.524 122.599V78.2098C437.524 75.7829 438.15 73.9432 439.402 72.6905C440.655 71.4379 442.416 70.8116 444.686 70.8116C446.957 70.8116 448.718 71.4379 449.97 72.6905C451.223 73.9432 451.849 75.7829 451.849 78.2098V86.7824L450.557 83.2594C452.123 79.345 454.549 76.2526 457.837 73.9823C461.125 71.712 465.039 70.5767 469.579 70.5767C474.198 70.5767 477.994 71.6727 480.969 73.8648C483.944 76.0569 486.018 79.4233 487.192 83.964H485.548C487.114 79.8148 489.698 76.5658 493.298 74.2171C496.899 71.7902 501.047 70.5767 505.744 70.5767C510.129 70.5767 513.729 71.4379 516.547 73.1602C519.443 74.8826 521.596 77.5052 523.005 81.0282C524.414 84.4728 525.118 88.857 525.118 94.1806V122.599C525.118 125.026 524.454 126.905 523.122 128.236C521.87 129.489 520.069 130.115 517.721 130.115C515.373 130.115 513.572 129.489 512.32 128.236C511.068 126.905 510.441 125.026 510.441 122.599V94.7677C510.441 90.3839 509.698 87.1738 508.21 85.1383C506.801 83.1029 504.375 82.0851 500.93 82.0851C497.095 82.0851 494.081 83.4552 491.889 86.1952C489.698 88.857 488.601 92.5754 488.601 97.3512V122.599C488.601 125.026 487.975 126.905 486.722 128.236C485.47 129.489 483.669 130.115 481.321 130.115C478.973 130.115 477.134 129.489 475.802 128.236C474.55 126.905 473.924 125.026 473.924 122.599V94.7677C473.924 90.3839 473.18 87.1738 471.693 85.1383C470.284 83.1029 467.896 82.0851 464.53 82.0851C460.695 82.0851 457.681 83.4552 455.489 86.1952C453.298 88.857 452.201 92.5754 452.201 97.3512V122.599C452.201 127.61 449.735 130.115 444.804 130.115ZM547.775 130.115C545.427 130.115 543.626 129.489 542.374 128.236C541.122 126.905 540.495 125.026 540.495 122.599V78.2098C540.495 75.7829 541.122 73.9432 542.374 72.6905C543.626 71.4379 545.388 70.8116 547.658 70.8116C549.928 70.8116 551.69 71.4379 552.941 72.6905C554.194 73.9432 554.82 75.7829 554.82 78.2098V86.7824L553.529 83.2594C555.095 79.345 557.521 76.2526 560.809 73.9823C564.096 71.712 568.011 70.5767 572.55 70.5767C577.17 70.5767 580.966 71.6727 583.94 73.8648C586.915 76.0569 588.989 79.4233 590.163 83.964H588.519C590.086 79.8148 592.669 76.5658 596.269 74.2171C599.87 71.7902 604.019 70.5767 608.716 70.5767C613.1 70.5767 616.7 71.4379 619.518 73.1602C622.415 74.8826 624.567 77.5052 625.976 81.0282C627.385 84.4728 628.09 88.857 628.09 94.1806V122.599C628.09 125.026 627.425 126.905 626.094 128.236C624.842 129.489 623.041 130.115 620.692 130.115C618.344 130.115 616.544 129.489 615.291 128.236C614.039 126.905 613.412 125.026 613.412 122.599V94.7677C613.412 90.3839 612.669 87.1738 611.181 85.1383C609.772 83.1029 607.346 82.0851 603.901 82.0851C600.066 82.0851 597.052 83.4552 594.86 86.1952C592.669 88.857 591.572 92.5754 591.572 97.3512V122.599C591.572 125.026 590.946 126.905 589.694 128.236C588.442 129.489 586.641 130.115 584.292 130.115C581.944 130.115 580.105 129.489 578.774 128.236C577.522 126.905 576.895 125.026 576.895 122.599V94.7677C576.895 90.3839 576.152 87.1738 574.664 85.1383C573.255 83.1029 570.868 82.0851 567.501 82.0851C563.666 82.0851 560.652 83.4552 558.46 86.1952C556.269 88.857 555.172 92.5754 555.172 97.3512V122.599C555.172 127.61 552.707 130.115 547.775 130.115ZM664.015 130.35C659.24 130.35 655.287 129.489 652.155 127.766C649.025 125.966 646.676 123.304 645.11 119.781C643.623 116.258 642.879 111.874 642.879 106.628V78.2098C642.879 75.7046 643.506 73.8648 644.758 72.6905C646.011 71.4379 647.811 70.8116 650.159 70.8116C652.508 70.8116 654.309 71.4379 655.56 72.6905C656.892 73.8648 657.557 75.7046 657.557 78.2098V106.863C657.557 110.935 658.379 113.948 660.022 115.905C661.666 117.863 664.289 118.841 667.889 118.841C671.804 118.841 675.013 117.511 677.518 114.849C680.023 112.109 681.275 108.507 681.275 104.045V78.2098C681.275 75.7046 681.902 73.8648 683.154 72.6905C684.407 71.4379 686.207 70.8116 688.555 70.8116C690.904 70.8116 692.705 71.4379 693.957 72.6905C695.288 73.8648 695.953 75.7046 695.953 78.2098V122.599C695.953 127.61 693.565 130.115 688.79 130.115C686.52 130.115 684.759 129.489 683.506 128.236C682.254 126.905 681.628 125.026 681.628 122.599V113.674L683.271 117.197C681.628 121.425 679.123 124.674 675.757 126.944C672.469 129.214 668.555 130.35 664.015 130.35ZM718.509 130.115C716.161 130.115 714.361 129.489 713.108 128.236C711.856 126.905 711.229 125.026 711.229 122.599V78.2098C711.229 75.7829 711.856 73.9432 713.108 72.6905C714.361 71.4379 716.122 70.8116 718.392 70.8116C720.662 70.8116 722.424 71.4379 723.675 72.6905C724.928 73.9432 725.554 75.7829 725.554 78.2098V86.1952L724.263 83.2594C725.985 79.1102 728.647 75.9786 732.247 73.8648C735.927 71.6727 740.075 70.5767 744.694 70.5767C749.313 70.5767 753.109 71.4379 756.083 73.1602C759.058 74.8826 761.289 77.5052 762.776 81.0282C764.264 84.4728 765.007 88.857 765.007 94.1806V122.599C765.007 125.026 764.381 126.905 763.128 128.236C761.876 129.489 760.075 130.115 757.727 130.115C755.379 130.115 753.54 129.489 752.208 128.236C750.956 126.905 750.33 125.026 750.33 122.599V94.8852C750.33 90.4228 749.469 87.1738 747.746 85.1383C746.103 83.1029 743.519 82.0851 739.997 82.0851C735.692 82.0851 732.247 83.4552 729.664 86.1952C727.159 88.857 725.906 92.4191 725.906 96.8815V122.599C725.906 127.61 723.441 130.115 718.509 130.115ZM787.195 129.997C784.846 129.997 783.046 129.293 781.794 127.884C780.542 126.474 779.915 124.517 779.915 122.012V78.9144C779.915 76.3309 780.542 74.3737 781.794 73.0428C783.046 71.6336 784.846 70.929 787.195 70.929C789.543 70.929 791.344 71.6336 792.596 73.0428C793.927 74.3737 794.592 76.3309 794.592 78.9144V122.012C794.592 124.517 793.966 126.474 792.713 127.884C791.462 129.293 789.622 129.997 787.195 129.997ZM787.195 60.0079C784.455 60.0079 782.303 59.3424 780.737 58.0115C779.25 56.6023 778.506 54.6843 778.506 52.2573C778.506 49.7522 779.25 47.834 780.737 46.5032C782.303 45.1723 784.455 44.5068 787.195 44.5068C790.013 44.5068 792.166 45.1723 793.653 46.5032C795.14 47.834 795.884 49.7522 795.884 52.2573C795.884 54.6843 795.14 56.6023 793.653 58.0115C792.166 59.3424 790.013 60.0079 787.195 60.0079ZM836.145 130.35C831.057 130.35 826.79 129.489 823.346 127.766C819.98 126.044 817.475 123.539 815.832 120.25C814.188 116.884 813.366 112.735 813.366 107.803V82.7897H807.26C805.381 82.7897 803.933 82.3199 802.915 81.3805C801.898 80.3627 801.389 78.9927 801.389 77.2704C801.389 75.4698 801.898 74.0997 802.915 73.1602C803.933 72.2208 805.381 71.7511 807.26 71.7511H813.366V61.0647C813.366 58.6378 813.992 56.7981 815.244 55.5454C816.575 54.2928 818.415 53.6665 820.763 53.6665C823.112 53.6665 824.912 54.2928 826.164 55.5454C827.417 56.7981 828.043 58.6378 828.043 61.0647V71.7511H840.49C842.368 71.7511 843.816 72.2208 844.834 73.1602C845.852 74.0997 846.361 75.4698 846.361 77.2704C846.361 78.9927 845.852 80.3627 844.834 81.3805C843.816 82.3199 842.368 82.7897 840.49 82.7897H828.043V106.981C828.043 110.738 828.865 113.557 830.509 115.436C832.153 117.315 834.815 118.254 838.493 118.254C839.824 118.254 840.998 118.137 842.016 117.902C843.034 117.667 843.934 117.511 844.717 117.432C845.656 117.354 846.439 117.667 847.065 118.372C847.691 118.998 848.004 120.329 848.004 122.364C848.004 123.93 847.731 125.339 847.183 126.592C846.713 127.766 845.812 128.588 844.482 129.058C843.464 129.371 842.133 129.645 840.49 129.88C838.846 130.193 837.398 130.35 836.145 130.35ZM870.385 151.253C868.663 151.253 867.254 150.783 866.158 149.843C865.062 148.982 864.396 147.808 864.161 146.32C864.005 144.833 864.279 143.267 864.983 141.623L872.968 123.891V129.997L851.598 80.5585C850.893 78.8361 850.658 77.2313 850.893 75.7438C851.128 74.2562 851.832 73.0819 853.007 72.2208C854.259 71.2813 855.942 70.8116 858.056 70.8116C859.857 70.8116 861.304 71.2422 862.4 72.1034C863.497 72.8863 864.475 74.4129 865.336 76.6832L881.187 116.258H877.665L893.868 76.5658C894.73 74.3737 895.747 72.8863 896.921 72.1034C898.096 71.2422 899.662 70.8116 901.618 70.8116C903.343 70.8116 904.707 71.2813 905.728 72.2208C906.748 73.0819 907.372 74.2562 907.607 75.7438C907.841 77.1529 907.57 78.7187 906.785 80.441L878.252 145.616C877.235 147.808 876.138 149.295 874.964 150.078C873.79 150.861 872.263 151.253 870.385 151.253ZM312.336 241.097C309.951 241.097 307.567 240.907 305.182 240.528C302.798 240.203 300.548 239.688 298.435 238.983C296.321 238.225 294.425 237.303 292.745 236.219C291.769 235.569 291.092 234.783 290.712 233.861C290.333 232.94 290.198 232.046 290.306 231.179C290.468 230.257 290.821 229.471 291.363 228.821C291.959 228.116 292.69 227.683 293.558 227.52C294.425 227.358 295.373 227.601 296.403 228.252C298.787 229.661 301.307 230.691 303.963 231.341C306.618 231.992 309.409 232.317 312.336 232.317C316.617 232.317 319.733 231.612 321.684 230.203C323.635 228.74 324.61 226.87 324.61 224.593C324.61 222.696 323.906 221.206 322.497 220.122C321.142 219.038 318.785 218.144 315.425 217.439L306.483 215.569C301.334 214.485 297.487 212.669 294.939 210.122C292.447 207.521 291.2 204.106 291.2 199.878C291.2 197.223 291.742 194.811 292.826 192.643C293.91 190.475 295.427 188.605 297.378 187.033C299.383 185.461 301.741 184.269 304.45 183.456C307.214 182.589 310.249 182.155 313.555 182.155C316.807 182.155 319.896 182.562 322.822 183.375C325.748 184.188 328.377 185.38 330.707 186.952C331.574 187.548 332.143 188.28 332.414 189.147C332.739 190.014 332.821 190.881 332.658 191.749C332.496 192.562 332.116 193.266 331.52 193.862C330.924 194.458 330.165 194.811 329.244 194.919C328.377 195.028 327.374 194.757 326.236 194.106C324.231 192.968 322.199 192.155 320.139 191.667C318.08 191.179 315.858 190.936 313.474 190.936C310.981 190.936 308.84 191.288 307.052 191.992C305.263 192.697 303.881 193.7 302.906 195C301.985 196.247 301.524 197.738 301.524 199.472C301.524 201.423 302.174 202.995 303.475 204.187C304.776 205.325 306.998 206.22 310.141 206.87L319.001 208.74C324.367 209.878 328.35 211.667 330.951 214.106C333.607 216.545 334.934 219.797 334.934 223.862C334.934 226.463 334.392 228.821 333.308 230.935C332.279 233.048 330.761 234.864 328.756 236.382C326.805 237.899 324.448 239.065 321.684 239.878C318.92 240.691 315.804 241.097 312.336 241.097ZM361.261 241.097C357.088 241.097 353.457 240.257 350.368 238.577C347.279 236.842 344.894 234.403 343.214 231.26C341.534 228.116 340.694 224.431 340.694 220.203C340.694 217.005 341.155 214.16 342.076 211.667C343.052 209.119 344.434 206.979 346.222 205.244C348.01 203.456 350.178 202.101 352.725 201.179C355.272 200.204 358.117 199.716 361.261 199.716C363.049 199.716 364.973 199.96 367.032 200.448C369.146 200.935 371.124 201.748 372.966 202.887C373.834 203.428 374.403 204.079 374.674 204.838C374.944 205.596 374.999 206.382 374.836 207.195C374.674 207.954 374.321 208.632 373.779 209.228C373.292 209.77 372.668 210.122 371.91 210.285C371.151 210.393 370.311 210.203 369.39 209.716C368.197 209.011 366.978 208.496 365.732 208.171C364.485 207.792 363.293 207.602 362.155 207.602C360.366 207.602 358.795 207.9 357.44 208.496C356.085 209.038 354.92 209.851 353.944 210.935C353.023 211.965 352.319 213.266 351.831 214.837C351.343 216.409 351.099 218.225 351.099 220.285C351.099 224.295 352.048 227.466 353.944 229.796C355.895 232.073 358.632 233.211 362.155 233.211C363.293 233.211 364.458 233.048 365.65 232.723C366.897 232.398 368.143 231.883 369.39 231.179C370.311 230.691 371.124 230.528 371.828 230.691C372.587 230.853 373.21 231.233 373.698 231.829C374.186 232.371 374.484 233.048 374.592 233.861C374.701 234.62 374.592 235.379 374.267 236.138C373.996 236.897 373.454 237.52 372.641 238.008C370.853 239.092 368.956 239.878 366.951 240.365C364.946 240.853 363.049 241.097 361.261 241.097ZM386.273 240.853C384.647 240.853 383.4 240.365 382.533 239.39C381.666 238.414 381.233 237.059 381.233 235.325V205.488C381.233 203.699 381.666 202.344 382.533 201.423C383.4 200.448 384.647 199.96 386.273 199.96C387.899 199.96 389.145 200.448 390.012 201.423C390.933 202.344 391.394 203.699 391.394 205.488V235.325C391.394 237.059 390.96 238.414 390.093 239.39C389.226 240.365 387.953 240.853 386.273 240.853ZM386.273 192.399C384.376 192.399 382.886 191.938 381.802 191.017C380.772 190.041 380.257 188.713 380.257 187.033C380.257 185.299 380.772 183.971 381.802 183.05C382.886 182.128 384.376 181.667 386.273 181.667C388.224 181.667 389.714 182.128 390.744 183.05C391.773 183.971 392.288 185.299 392.288 187.033C392.288 188.713 391.773 190.041 390.744 191.017C389.714 191.938 388.224 192.399 386.273 192.399ZM421.543 241.097C417.045 241.097 413.17 240.257 409.918 238.577C406.667 236.897 404.147 234.512 402.358 231.422C400.624 228.333 399.757 224.675 399.757 220.447C399.757 216.328 400.597 212.724 402.277 209.634C404.011 206.545 406.369 204.133 409.349 202.399C412.384 200.61 415.825 199.716 419.673 199.716C422.491 199.716 425.011 200.177 427.233 201.098C429.509 202.019 431.433 203.347 433.005 205.082C434.631 206.816 435.85 208.93 436.663 211.423C437.53 213.862 437.963 216.626 437.963 219.715C437.963 220.691 437.611 221.45 436.907 221.992C436.256 222.48 435.308 222.723 434.062 222.723H407.967V216.87H430.81L429.509 218.089C429.509 215.596 429.13 213.51 428.371 211.829C427.667 210.149 426.61 208.876 425.201 208.008C423.846 207.087 422.139 206.626 420.08 206.626C417.803 206.626 415.852 207.168 414.227 208.252C412.655 209.282 411.436 210.773 410.569 212.724C409.756 214.621 409.349 216.897 409.349 219.553V220.122C409.349 224.566 410.379 227.9 412.438 230.122C414.552 232.29 417.641 233.374 421.705 233.374C423.114 233.374 424.686 233.211 426.42 232.886C428.209 232.506 429.889 231.883 431.46 231.016C432.598 230.366 433.601 230.095 434.468 230.203C435.335 230.257 436.012 230.555 436.5 231.097C437.042 231.639 437.367 232.317 437.476 233.13C437.584 233.889 437.422 234.674 436.988 235.487C436.609 236.3 435.931 237.005 434.956 237.601C433.059 238.794 430.864 239.688 428.371 240.284C425.932 240.826 423.656 241.097 421.543 241.097ZM451.05 240.934C449.424 240.934 448.178 240.501 447.311 239.634C446.444 238.712 446.01 237.411 446.01 235.731V205C446.01 203.32 446.444 202.046 447.311 201.179C448.178 200.312 449.397 199.878 450.969 199.878C452.541 199.878 453.76 200.312 454.627 201.179C455.494 202.046 455.928 203.32 455.928 205V210.529L455.034 208.496C456.226 205.624 458.068 203.456 460.561 201.992C463.108 200.475 465.981 199.716 469.178 199.716C472.375 199.716 475.004 200.312 477.063 201.504C479.123 202.697 480.667 204.512 481.697 206.951C482.726 209.336 483.241 212.371 483.241 216.057V235.731C483.241 237.411 482.808 238.712 481.941 239.634C481.074 240.501 479.827 240.934 478.201 240.934C476.575 240.934 475.302 240.501 474.381 239.634C473.513 238.712 473.08 237.411 473.08 235.731V216.545C473.08 213.455 472.484 211.206 471.292 209.797C470.154 208.388 468.365 207.683 465.926 207.683C462.946 207.683 460.561 208.632 458.773 210.529C457.039 212.371 456.172 214.837 456.172 217.927V235.731C456.172 239.2 454.464 240.934 451.05 240.934ZM511.934 241.097C507.761 241.097 504.13 240.257 501.041 238.577C497.952 236.842 495.568 234.403 493.888 231.26C492.208 228.116 491.368 224.431 491.368 220.203C491.368 217.005 491.828 214.16 492.75 211.667C493.725 209.119 495.107 206.979 496.895 205.244C498.684 203.456 500.851 202.101 503.399 201.179C505.946 200.204 508.791 199.716 511.934 199.716C513.722 199.716 515.646 199.96 517.706 200.448C519.819 200.935 521.797 201.748 523.64 202.887C524.507 203.428 525.076 204.079 525.347 204.838C525.618 205.596 525.672 206.382 525.51 207.195C525.347 207.954 524.995 208.632 524.453 209.228C523.965 209.77 523.342 210.122 522.583 210.285C521.824 210.393 520.984 210.203 520.063 209.716C518.871 209.011 517.651 208.496 516.405 208.171C515.159 207.792 513.966 207.602 512.828 207.602C511.04 207.602 509.468 207.9 508.113 208.496C506.759 209.038 505.593 209.851 504.618 210.935C503.697 211.965 502.992 213.266 502.504 214.837C502.017 216.409 501.773 218.225 501.773 220.285C501.773 224.295 502.721 227.466 504.618 229.796C506.569 232.073 509.306 233.211 512.828 233.211C513.966 233.211 515.131 233.048 516.324 232.723C517.57 232.398 518.817 231.883 520.063 231.179C520.984 230.691 521.797 230.528 522.502 230.691C523.26 230.853 523.884 231.233 524.371 231.829C524.859 232.371 525.157 233.048 525.266 233.861C525.374 234.62 525.266 235.379 524.941 236.138C524.67 236.897 524.128 237.52 523.315 238.008C521.526 239.092 519.63 239.878 517.624 240.365C515.619 240.853 513.722 241.097 511.934 241.097ZM550.702 241.097C546.204 241.097 542.329 240.257 539.078 238.577C535.826 236.897 533.306 234.512 531.518 231.422C529.784 228.333 528.916 224.675 528.916 220.447C528.916 216.328 529.756 212.724 531.436 209.634C533.171 206.545 535.528 204.133 538.509 202.399C541.544 200.61 544.985 199.716 548.833 199.716C551.651 199.716 554.171 200.177 556.393 201.098C558.669 202.019 560.593 203.347 562.164 205.082C563.79 206.816 565.009 208.93 565.822 211.423C566.689 213.862 567.123 216.626 567.123 219.715C567.123 220.691 566.771 221.45 566.066 221.992C565.416 222.48 564.467 222.723 563.221 222.723H537.127V216.87H559.969L558.669 218.089C558.669 215.596 558.289 213.51 557.531 211.829C556.826 210.149 555.769 208.876 554.36 208.008C553.005 207.087 551.298 206.626 549.239 206.626C546.963 206.626 545.012 207.168 543.386 208.252C541.815 209.282 540.595 210.773 539.728 212.724C538.915 214.621 538.509 216.897 538.509 219.553V220.122C538.509 224.566 539.538 227.9 541.598 230.122C543.711 232.29 546.8 233.374 550.865 233.374C552.274 233.374 553.846 233.211 555.58 232.886C557.368 232.506 559.048 231.883 560.62 231.016C561.758 230.366 562.76 230.095 563.627 230.203C564.495 230.257 565.172 230.555 565.66 231.097C566.202 231.639 566.527 232.317 566.635 233.13C566.744 233.889 566.581 234.674 566.147 235.487C565.768 236.3 565.091 237.005 564.115 237.601C562.218 238.794 560.024 239.688 557.531 240.284C555.092 240.826 552.816 241.097 550.702 241.097ZM603.092 240.934C601.575 240.934 600.41 240.501 599.597 239.634C598.784 238.766 598.377 237.574 598.377 236.057V187.196C598.377 185.624 598.811 184.432 599.678 183.619C600.545 182.751 601.737 182.318 603.255 182.318C604.609 182.318 605.666 182.589 606.425 183.131C607.238 183.619 607.969 184.486 608.62 185.732L628.699 222.886H626.097L646.176 185.732C646.826 184.486 647.531 183.619 648.29 183.131C649.048 182.589 650.105 182.318 651.46 182.318C652.977 182.318 654.142 182.751 654.955 183.619C655.768 184.432 656.175 185.624 656.175 187.196V236.057C656.175 237.574 655.768 238.766 654.955 239.634C654.197 240.501 653.031 240.934 651.46 240.934C649.942 240.934 648.777 240.501 647.964 239.634C647.151 238.766 646.745 237.574 646.745 236.057V198.415H648.533L631.462 229.553C630.921 230.474 630.351 231.151 629.755 231.585C629.159 232.019 628.346 232.235 627.317 232.235C626.287 232.235 625.447 232.019 624.797 231.585C624.146 231.097 623.577 230.42 623.09 229.553L605.856 198.334H607.807V236.057C607.807 237.574 607.4 238.766 606.588 239.634C605.829 240.501 604.664 240.934 603.092 240.934ZM682.201 241.097C678.895 241.097 676.159 240.501 673.991 239.309C671.823 238.062 670.197 236.219 669.113 233.78C668.084 231.341 667.569 228.306 667.569 224.675V205C667.569 203.266 668.002 201.992 668.87 201.179C669.737 200.312 670.983 199.878 672.609 199.878C674.235 199.878 675.481 200.312 676.348 201.179C677.27 201.992 677.73 203.266 677.73 205V224.837C677.73 227.656 678.299 229.742 679.437 231.097C680.575 232.452 682.391 233.13 684.884 233.13C687.593 233.13 689.815 232.208 691.549 230.366C693.284 228.469 694.151 225.975 694.151 222.886V205C694.151 203.266 694.584 201.992 695.451 201.179C696.319 200.312 697.565 199.878 699.191 199.878C700.817 199.878 702.063 200.312 702.93 201.179C703.851 201.992 704.312 203.266 704.312 205V235.731C704.312 239.2 702.659 240.934 699.353 240.934C697.782 240.934 696.562 240.501 695.695 239.634C694.828 238.712 694.395 237.411 694.395 235.731V229.553L695.533 231.992C694.395 234.918 692.66 237.168 690.33 238.739C688.054 240.311 685.344 241.097 682.201 241.097ZM729.439 241.097C727.109 241.097 724.643 240.853 722.042 240.365C719.44 239.878 717.11 239.037 715.051 237.845C714.183 237.303 713.56 236.68 713.181 235.975C712.856 235.216 712.72 234.485 712.774 233.78C712.883 233.021 713.154 232.371 713.587 231.829C714.075 231.287 714.671 230.935 715.376 230.772C716.134 230.609 716.947 230.745 717.814 231.179C719.982 232.208 722.014 232.94 723.911 233.374C725.808 233.753 727.678 233.943 729.52 233.943C732.121 233.943 734.045 233.509 735.292 232.642C736.592 231.721 737.243 230.528 737.243 229.065C737.243 227.818 736.809 226.87 735.942 226.219C735.129 225.515 733.883 225 732.203 224.675L724.074 223.13C720.714 222.48 718.14 221.26 716.351 219.472C714.617 217.629 713.75 215.271 713.75 212.398C713.75 209.797 714.454 207.548 715.863 205.651C717.327 203.754 719.332 202.29 721.879 201.261C724.426 200.231 727.352 199.716 730.658 199.716C733.043 199.716 735.265 199.987 737.324 200.529C739.438 201.017 741.47 201.803 743.421 202.887C744.234 203.32 744.776 203.889 745.047 204.594C745.372 205.298 745.453 206.03 745.291 206.789C745.128 207.493 744.803 208.144 744.315 208.74C743.827 209.282 743.204 209.634 742.445 209.797C741.741 209.905 740.928 209.743 740.007 209.309C738.327 208.442 736.701 207.819 735.129 207.439C733.612 207.06 732.149 206.87 730.74 206.87C728.084 206.87 726.106 207.331 724.805 208.252C723.559 209.174 722.936 210.393 722.936 211.911C722.936 213.049 723.315 213.997 724.074 214.756C724.832 215.515 725.998 216.03 727.569 216.301L735.698 217.846C739.221 218.496 741.876 219.688 743.665 221.423C745.507 223.157 746.429 225.488 746.429 228.414C746.429 232.371 744.884 235.487 741.795 237.764C738.706 239.986 734.587 241.097 729.439 241.097ZM774.171 241.097C769.673 241.097 765.798 240.257 762.547 238.577C759.295 236.897 756.775 234.512 754.987 231.422C753.252 228.333 752.385 224.675 752.385 220.447C752.385 216.328 753.225 212.724 754.905 209.634C756.64 206.545 758.997 204.133 761.978 202.399C765.012 200.61 768.454 199.716 772.301 199.716C775.12 199.716 777.64 200.177 779.862 201.098C782.138 202.019 784.061 203.347 785.633 205.082C787.259 206.816 788.478 208.93 789.291 211.423C790.158 213.862 790.592 216.626 790.592 219.715C790.592 220.691 790.24 221.45 789.535 221.992C788.885 222.48 787.936 222.723 786.69 222.723H760.596V216.87H783.438L782.138 218.089C782.138 215.596 781.758 213.51 781 211.829C780.295 210.149 779.238 208.876 777.829 208.008C776.474 207.087 774.767 206.626 772.708 206.626C770.432 206.626 768.481 207.168 766.855 208.252C765.283 209.282 764.064 210.773 763.197 212.724C762.384 214.621 761.978 216.897 761.978 219.553V220.122C761.978 224.566 763.007 227.9 765.067 230.122C767.18 232.29 770.269 233.374 774.334 233.374C775.743 233.374 777.314 233.211 779.049 232.886C780.837 232.506 782.517 231.883 784.089 231.016C785.227 230.366 786.229 230.095 787.096 230.203C787.963 230.257 788.641 230.555 789.129 231.097C789.671 231.639 789.996 232.317 790.104 233.13C790.212 233.889 790.05 234.674 789.616 235.487C789.237 236.3 788.56 237.005 787.584 237.601C785.687 238.794 783.492 239.688 781 240.284C778.561 240.826 776.285 241.097 774.171 241.097ZM813.027 241.097C809.721 241.097 806.984 240.501 804.817 239.309C802.649 238.062 801.023 236.219 799.939 233.78C798.91 231.341 798.395 228.306 798.395 224.675V205C798.395 203.266 798.828 201.992 799.695 201.179C800.563 200.312 801.809 199.878 803.435 199.878C805.061 199.878 806.307 200.312 807.174 201.179C808.095 201.992 808.556 203.266 808.556 205V224.837C808.556 227.656 809.125 229.742 810.263 231.097C811.401 232.452 813.217 233.13 815.71 233.13C818.419 233.13 820.641 232.208 822.375 230.366C824.11 228.469 824.977 225.975 824.977 222.886V205C824.977 203.266 825.41 201.992 826.277 201.179C827.144 200.312 828.391 199.878 830.017 199.878C831.643 199.878 832.889 200.312 833.756 201.179C834.677 201.992 835.138 203.266 835.138 205V235.731C835.138 239.2 833.485 240.934 830.179 240.934C828.608 240.934 827.388 240.501 826.521 239.634C825.654 238.712 825.221 237.411 825.221 235.731V229.553L826.359 231.992C825.221 234.918 823.486 237.168 821.156 238.739C818.88 240.311 816.17 241.097 813.027 241.097ZM850.917 240.934C849.292 240.934 848.045 240.501 847.178 239.634C846.311 238.712 845.877 237.411 845.877 235.731V205C845.877 203.32 846.311 202.046 847.178 201.179C848.045 200.312 849.264 199.878 850.836 199.878C852.408 199.878 853.627 200.312 854.494 201.179C855.361 202.046 855.795 203.32 855.795 205V210.935L854.901 208.496C855.984 205.786 857.664 203.645 859.941 202.074C862.217 200.502 864.926 199.716 868.07 199.716C871.267 199.716 873.895 200.475 875.955 201.992C878.014 203.51 879.45 205.84 880.263 208.984H879.125C880.209 206.111 881.997 203.862 884.49 202.236C886.983 200.556 889.855 199.716 893.107 199.716C896.142 199.716 898.635 200.312 900.586 201.504C902.591 202.697 904.084 204.512 905.059 206.951C906.035 209.336 906.523 212.371 906.523 216.057V235.731C906.523 237.411 906.062 238.712 905.141 239.634C904.274 240.501 903.024 240.934 901.399 240.934C899.773 240.934 898.526 240.501 897.659 239.634C896.792 238.712 896.359 237.411 896.359 235.731V216.463C896.359 213.428 895.844 211.206 894.814 209.797C893.839 208.388 892.159 207.683 889.774 207.683C887.119 207.683 885.032 208.632 883.515 210.529C881.997 212.371 881.239 214.946 881.239 218.252V235.731C881.239 237.411 880.805 238.712 879.938 239.634C879.071 240.501 877.825 240.934 876.199 240.934C874.573 240.934 873.299 240.501 872.378 239.634C871.511 238.712 871.077 237.411 871.077 235.731V216.463C871.077 213.428 870.563 211.206 869.533 209.797C868.557 208.388 866.904 207.683 864.574 207.683C861.919 207.683 859.832 208.632 858.315 210.529C856.797 212.371 856.039 214.946 856.039 218.252V235.731C856.039 239.2 854.332 240.934 850.917 240.934Z" fill="#1C1D25"/>
</svg>
