<svg width="197" height="62" viewBox="0 0 197 62" fill="none" xmlns="http://www.w3.org/2000/svg">
<path d="M54.6124 56.0516H12.0808C11.3288 56.0516 10.6076 55.7575 10.0758 55.2339C9.54409 54.7104 9.24536 54.0005 9.24536 53.2601V5.80664" stroke="#1C1D25" stroke-width="7" stroke-linecap="round" stroke-linejoin="round"/>
<path d="M3.36426 16.9044L31.1132 16.8584" stroke="#1C1D25" stroke-width="6" stroke-linecap="round" stroke-linejoin="round"/>
<path d="M28.8637 8.59326H45.916M51.2591 40.7594L43.074 25.834V8.59326H31.7056V25.834L23.5206 40.7594C23.2903 41.1838 23.1757 41.6596 23.1879 42.1404C23.2002 42.6212 23.3389 43.0906 23.5907 43.5035C23.8422 43.9161 24.1983 44.2578 24.6243 44.4957C25.0502 44.7334 25.5315 44.8589 26.0216 44.8602H48.7581C49.2481 44.8589 49.7294 44.7334 50.1554 44.4957C50.5814 44.2578 50.9374 43.9161 51.189 43.5035C51.4407 43.0906 51.5794 42.6212 51.5918 42.1404C51.6039 41.6596 51.4893 41.1838 51.2591 40.7594Z" stroke="#6CDCED" stroke-width="5" stroke-linecap="round" stroke-linejoin="round"/>
<path d="M69.0903 27.0289C67.3085 27.0289 65.7777 26.6717 64.498 25.9575C63.2345 25.227 62.2626 24.2043 61.5822 22.8894C60.9019 21.5581 60.5617 19.9917 60.5617 18.1897C60.5617 16.8423 60.7561 15.6329 61.1449 14.5615C61.5336 13.4738 62.0925 12.5485 62.8214 11.7856C63.5504 11.0063 64.4413 10.4138 65.4942 10.008C66.5633 9.58591 67.7619 9.37486 69.0903 9.37486C69.9813 9.37486 70.856 9.4885 71.7145 9.71577C72.5729 9.94303 73.3262 10.2677 73.9742 10.6898C74.3143 10.9008 74.541 11.1606 74.6545 11.469C74.768 11.7612 74.7922 12.0534 74.7274 12.3456C74.6625 12.6216 74.525 12.857 74.3143 13.0518C74.1199 13.2466 73.8689 13.3602 73.5611 13.3927C73.2695 13.4089 72.9456 13.3034 72.5892 13.0761C72.087 12.7515 71.5444 12.5161 70.9612 12.37C70.3781 12.2239 69.7869 12.1508 69.1875 12.1508C68.0374 12.1508 67.0655 12.3862 66.2717 12.857C65.4779 13.3277 64.8787 14.0096 64.4737 14.9024C64.0686 15.7953 63.8662 16.891 63.8662 18.1897C63.8662 19.4722 64.0686 20.568 64.4737 21.477C64.8787 22.3861 65.4779 23.0761 66.2717 23.5468C67.0655 24.0175 68.0374 24.253 69.1875 24.253C69.803 24.253 70.4104 24.1799 71.0098 24.0338C71.6092 23.8714 72.1761 23.6279 72.7107 23.3033C73.0671 23.0922 73.383 23.0031 73.6583 23.0355C73.9499 23.0518 74.1928 23.1492 74.3872 23.3277C74.5816 23.5062 74.7111 23.7336 74.776 24.0095C74.8408 24.2693 74.8246 24.5452 74.7274 24.8374C74.6302 25.1133 74.4358 25.3568 74.1442 25.5679C73.4962 26.0386 72.7187 26.4039 71.8116 26.6637C70.9207 26.9072 70.0136 27.0289 69.0903 27.0289ZM81.9082 27.0289C80.677 27.0289 79.6079 26.7774 78.7008 26.2741C77.7938 25.7708 77.0891 25.0566 76.5869 24.1312C76.0847 23.1896 75.8337 22.0858 75.8337 20.8196C75.8337 19.8619 75.9714 19.0096 76.2468 18.2628C76.5383 17.4998 76.9514 16.8505 77.486 16.3147C78.0205 15.7628 78.6603 15.3488 79.4055 15.0729C80.1507 14.7807 80.9849 14.6346 81.9082 14.6346C83.1393 14.6346 84.2084 14.8862 85.1155 15.3894C86.0226 15.8927 86.7272 16.6069 87.2294 17.5323C87.7316 18.4576 87.9827 19.5534 87.9827 20.8196C87.9827 21.7773 87.8369 22.6378 87.5453 23.4007C87.27 24.1636 86.865 24.8211 86.3304 25.3731C85.7958 25.9088 85.1561 26.3228 84.4109 26.615C83.6657 26.8909 82.8315 27.0289 81.9082 27.0289ZM81.9082 24.7156C82.5076 24.7156 83.0339 24.5695 83.4875 24.2773C83.9412 23.9851 84.2894 23.5549 84.5324 22.9868C84.7916 22.4024 84.9211 21.6799 84.9211 20.8196C84.9211 19.5209 84.6458 18.555 84.095 17.9219C83.5442 17.2725 82.8152 16.9479 81.9082 16.9479C81.3088 16.9479 80.7824 17.094 80.3288 17.3862C79.8752 17.6621 79.5189 18.0923 79.2597 18.6767C79.0167 19.2449 78.8952 19.9593 78.8952 20.8196C78.8952 22.1021 79.1705 23.0761 79.7214 23.7416C80.2722 24.391 81.0011 24.7156 81.9082 24.7156ZM92.0445 26.9802C91.5586 26.9802 91.1861 26.8504 90.9268 26.5906C90.6678 26.3147 90.538 25.9251 90.538 25.4218V16.2173C90.538 15.7141 90.6678 15.3326 90.9268 15.0729C91.1861 14.8131 91.5505 14.6833 92.0202 14.6833C92.4901 14.6833 92.8546 14.8131 93.1136 15.0729C93.3729 15.3326 93.5024 15.7141 93.5024 16.2173V17.9949L93.2351 17.2644C93.5592 16.4527 94.0612 15.8115 94.7416 15.3407C95.4219 14.87 96.232 14.6346 97.1714 14.6346C98.1272 14.6346 98.9128 14.8618 99.5283 15.3164C100.144 15.7709 100.573 16.469 100.816 17.4105H100.476C100.8 16.5501 101.335 15.8764 102.08 15.3894C102.825 14.8862 103.683 14.6346 104.655 14.6346C105.562 14.6346 106.307 14.8131 106.891 15.1703C107.49 15.5274 107.935 16.0712 108.227 16.8018C108.519 17.516 108.664 18.4251 108.664 19.529V25.4218C108.664 25.9251 108.527 26.3147 108.251 26.5906C107.992 26.8504 107.619 26.9802 107.134 26.9802C106.648 26.9802 106.275 26.8504 106.016 26.5906C105.757 26.3147 105.627 25.9251 105.627 25.4218V19.6508C105.627 18.7417 105.473 18.0761 105.165 17.654C104.874 17.2319 104.372 17.0209 103.659 17.0209C102.865 17.0209 102.242 17.305 101.788 17.8732C101.335 18.4251 101.108 19.1961 101.108 20.1865V25.4218C101.108 25.9251 100.978 26.3147 100.719 26.5906C100.46 26.8504 100.087 26.9802 99.6012 26.9802C99.1152 26.9802 98.7347 26.8504 98.4592 26.5906C98.2001 26.3147 98.0704 25.9251 98.0704 25.4218V19.6508C98.0704 18.7417 97.9166 18.0761 97.6087 17.654C97.3172 17.2319 96.8232 17.0209 96.1266 17.0209C95.333 17.0209 94.7092 17.305 94.2556 17.8732C93.8022 18.4251 93.5753 19.1961 93.5753 20.1865V25.4218C93.5753 26.4608 93.065 26.9802 92.0445 26.9802ZM113.353 26.9802C112.867 26.9802 112.494 26.8504 112.235 26.5906C111.976 26.3147 111.846 25.9251 111.846 25.4218V16.2173C111.846 15.7141 111.976 15.3326 112.235 15.0729C112.494 14.8131 112.859 14.6833 113.328 14.6833C113.798 14.6833 114.163 14.8131 114.422 15.0729C114.681 15.3326 114.811 15.7141 114.811 16.2173V17.9949L114.543 17.2644C114.867 16.4527 115.369 15.8115 116.05 15.3407C116.73 14.87 117.54 14.6346 118.48 14.6346C119.435 14.6346 120.221 14.8618 120.836 15.3164C121.452 15.7709 121.881 16.469 122.124 17.4105H121.784C122.108 16.5501 122.643 15.8764 123.388 15.3894C124.133 14.8862 124.991 14.6346 125.963 14.6346C126.871 14.6346 127.616 14.8131 128.199 15.1703C128.798 15.5274 129.243 16.0712 129.535 16.8018C129.827 17.516 129.972 18.4251 129.972 19.529V25.4218C129.972 25.9251 129.835 26.3147 129.559 26.5906C129.3 26.8504 128.928 26.9802 128.442 26.9802C127.956 26.9802 127.583 26.8504 127.324 26.5906C127.065 26.3147 126.935 25.9251 126.935 25.4218V19.6508C126.935 18.7417 126.781 18.0761 126.474 17.654C126.182 17.2319 125.68 17.0209 124.967 17.0209C124.173 17.0209 123.55 17.305 123.096 17.8732C122.643 18.4251 122.416 19.1961 122.416 20.1865V25.4218C122.416 25.9251 122.286 26.3147 122.027 26.5906C121.768 26.8504 121.395 26.9802 120.909 26.9802C120.423 26.9802 120.043 26.8504 119.767 26.5906C119.508 26.3147 119.379 25.9251 119.379 25.4218V19.6508C119.379 18.7417 119.225 18.0761 118.917 17.654C118.625 17.2319 118.131 17.0209 117.435 17.0209C116.641 17.0209 116.017 17.305 115.564 17.8732C115.11 18.4251 114.883 19.1961 114.883 20.1865V25.4218C114.883 26.4608 114.373 26.9802 113.353 26.9802ZM137.406 27.0289C136.418 27.0289 135.6 26.8504 134.952 26.4932C134.305 26.1199 133.819 25.5679 133.495 24.8374C133.187 24.1069 133.033 23.1979 133.033 22.1102V16.2173C133.033 15.6979 133.163 15.3164 133.422 15.0729C133.681 14.8131 134.053 14.6833 134.539 14.6833C135.025 14.6833 135.398 14.8131 135.657 15.0729C135.933 15.3164 136.07 15.6979 136.07 16.2173V22.1589C136.07 23.0031 136.24 23.6279 136.58 24.0338C136.921 24.4397 137.463 24.6426 138.208 24.6426C139.018 24.6426 139.682 24.3667 140.201 23.8147C140.719 23.2466 140.978 22.4998 140.978 21.5744V16.2173C140.978 15.6979 141.108 15.3164 141.367 15.0729C141.626 14.8131 141.999 14.6833 142.485 14.6833C142.971 14.6833 143.343 14.8131 143.602 15.0729C143.878 15.3164 144.016 15.6979 144.016 16.2173V25.4218C144.016 26.4608 143.522 26.9802 142.533 26.9802C142.064 26.9802 141.699 26.8504 141.44 26.5906C141.181 26.3147 141.051 25.9251 141.051 25.4218V23.5712L141.391 24.3017C141.051 25.1783 140.533 25.8521 139.836 26.3228C139.156 26.7935 138.346 27.0289 137.406 27.0289ZM148.683 26.9802C148.197 26.9802 147.825 26.8504 147.565 26.5906C147.306 26.3147 147.177 25.9251 147.177 25.4218V16.2173C147.177 15.7141 147.306 15.3326 147.565 15.0729C147.825 14.8131 148.189 14.6833 148.659 14.6833C149.129 14.6833 149.493 14.8131 149.752 15.0729C150.011 15.3326 150.141 15.7141 150.141 16.2173V17.8732L149.874 17.2644C150.23 16.404 150.781 15.7547 151.526 15.3164C152.287 14.8618 153.146 14.6346 154.102 14.6346C155.057 14.6346 155.843 14.8131 156.458 15.1703C157.074 15.5274 157.536 16.0712 157.843 16.8018C158.151 17.516 158.305 18.4251 158.305 19.529V25.4218C158.305 25.9251 158.176 26.3147 157.916 26.5906C157.657 26.8504 157.285 26.9802 156.799 26.9802C156.313 26.9802 155.932 26.8504 155.657 26.5906C155.398 26.3147 155.268 25.9251 155.268 25.4218V19.6751C155.268 18.7498 155.09 18.0761 154.733 17.654C154.393 17.2319 153.859 17.0209 153.13 17.0209C152.239 17.0209 151.526 17.305 150.991 17.8732C150.473 18.4251 150.214 19.1637 150.214 20.0891V25.4218C150.214 26.4608 149.704 26.9802 148.683 26.9802ZM162.896 26.9559C162.411 26.9559 162.038 26.8098 161.779 26.5176C161.52 26.2254 161.39 25.8195 161.39 25.3001V16.3634C161.39 15.8277 161.52 15.4219 161.779 15.1459C162.038 14.8537 162.411 14.7076 162.896 14.7076C163.382 14.7076 163.755 14.8537 164.014 15.1459C164.29 15.4219 164.427 15.8277 164.427 16.3634V25.3001C164.427 25.8195 164.298 26.2254 164.038 26.5176C163.779 26.8098 163.399 26.9559 162.896 26.9559ZM162.896 12.443C162.33 12.443 161.884 12.305 161.56 12.0291C161.252 11.7369 161.098 11.3391 161.098 10.8359C161.098 10.3164 161.252 9.91868 161.56 9.64272C161.884 9.36675 162.33 9.22876 162.896 9.22876C163.48 9.22876 163.925 9.36675 164.233 9.64272C164.541 9.91868 164.695 10.3164 164.695 10.8359C164.695 11.3391 164.541 11.7369 164.233 12.0291C163.925 12.305 163.48 12.443 162.896 12.443ZM173.026 27.0289C171.973 27.0289 171.09 26.8504 170.377 26.4932C169.681 26.136 169.163 25.6166 168.822 24.9348C168.482 24.2367 168.312 23.3764 168.312 22.3537V17.167H167.049C166.66 17.167 166.36 17.0696 166.15 16.8748C165.939 16.6638 165.834 16.3797 165.834 16.0225C165.834 15.6492 165.939 15.3651 166.15 15.1703C166.36 14.9755 166.66 14.8781 167.049 14.8781H168.312V12.6622C168.312 12.1589 168.442 11.7774 168.701 11.5177C168.976 11.258 169.357 11.1281 169.843 11.1281C170.329 11.1281 170.701 11.258 170.961 11.5177C171.22 11.7774 171.349 12.1589 171.349 12.6622V14.8781H173.925C174.314 14.8781 174.613 14.9755 174.824 15.1703C175.035 15.3651 175.14 15.6492 175.14 16.0225C175.14 16.3797 175.035 16.6638 174.824 16.8748C174.613 17.0696 174.314 17.167 173.925 17.167H171.349V22.1832C171.349 22.9624 171.519 23.5468 171.86 23.9364C172.2 24.326 172.751 24.5208 173.512 24.5208C173.787 24.5208 174.03 24.4965 174.241 24.4478C174.451 24.3991 174.638 24.3667 174.8 24.3504C174.994 24.3341 175.156 24.3991 175.286 24.5452C175.415 24.675 175.48 24.9511 175.48 25.3731C175.48 25.6977 175.423 25.9899 175.31 26.2497C175.213 26.4932 175.026 26.6637 174.751 26.7611C174.54 26.8261 174.265 26.8828 173.925 26.9315C173.585 26.9965 173.285 27.0289 173.026 27.0289ZM180.111 31.3633C179.755 31.3633 179.463 31.2659 179.236 31.0711C179.01 30.8926 178.872 30.6491 178.823 30.3406C178.791 30.0321 178.848 29.7075 178.993 29.3666L180.646 25.6897V26.9559L176.224 16.7043C176.078 16.3472 176.029 16.0144 176.078 15.706C176.126 15.3975 176.272 15.154 176.515 14.9755C176.774 14.7807 177.123 14.6833 177.56 14.6833C177.933 14.6833 178.232 14.7726 178.459 14.9511C178.686 15.1135 178.888 15.43 179.066 15.9008L182.347 24.1069H181.618L184.971 15.8764C185.149 15.4219 185.36 15.1135 185.603 14.9511C185.845 14.7726 186.17 14.6833 186.574 14.6833C186.931 14.6833 187.214 14.7807 187.425 14.9755C187.636 15.154 187.765 15.3975 187.814 15.706C187.862 15.9982 187.806 16.3229 187.644 16.68L181.739 30.1945C181.529 30.6491 181.302 30.9574 181.059 31.1198C180.816 31.2822 180.5 31.3633 180.111 31.3633ZM64.6325 49.9933C64.1391 49.9933 63.6457 49.954 63.1522 49.8753C62.6588 49.8079 62.1934 49.7011 61.756 49.555C61.3187 49.3976 60.9262 49.2066 60.5785 48.9818C60.3767 48.8469 60.2365 48.684 60.158 48.4929C60.0795 48.3019 60.0515 48.1164 60.0739 47.9366C60.1075 47.7456 60.1804 47.5826 60.2926 47.4477C60.4159 47.3016 60.5673 47.2117 60.7467 47.178C60.9262 47.1443 61.1224 47.1949 61.3355 47.3297C61.8289 47.6219 62.3504 47.8355 62.8999 47.9703C63.4494 48.1052 64.027 48.1726 64.6325 48.1726C65.5185 48.1726 66.1633 48.0265 66.567 47.7343C66.9707 47.4309 67.1726 47.0431 67.1726 46.5711C67.1726 46.1778 67.0268 45.8687 66.7352 45.6439C66.4549 45.4192 65.9671 45.2337 65.2718 45.0876L63.4214 44.6999C62.356 44.4751 61.5598 44.0986 61.0327 43.5704C60.5169 43.0309 60.2589 42.3229 60.2589 41.4463C60.2589 40.8956 60.3711 40.3955 60.5954 39.9459C60.8196 39.4964 61.1336 39.1086 61.5374 38.7827C61.9523 38.4568 62.4401 38.2095 63.0008 38.041C63.5728 37.8611 64.2008 37.7712 64.8849 37.7712C65.5577 37.7712 66.197 37.8555 66.8025 38.0241C67.4081 38.1927 67.952 38.4399 68.4342 38.7659C68.6137 38.8895 68.7314 39.0412 68.7875 39.221C68.8548 39.4008 68.8716 39.5807 68.8379 39.7605C68.8043 39.9291 68.7258 40.0752 68.6025 40.1988C68.4791 40.3224 68.3221 40.3955 68.1314 40.4179C67.952 40.4404 67.7445 40.3842 67.509 40.2494C67.0941 40.0134 66.6736 39.8448 66.2474 39.7436C65.8213 39.6425 65.3615 39.5919 64.868 39.5919C64.3522 39.5919 63.9092 39.665 63.5391 39.8111C63.1691 39.9572 62.8831 40.1651 62.6812 40.4348C62.4906 40.6933 62.3953 41.0024 62.3953 41.362C62.3953 41.7666 62.5298 42.0925 62.799 42.3398C63.0681 42.5758 63.5279 42.7612 64.1784 42.8961L66.0119 43.2838C67.1221 43.5198 67.9464 43.8907 68.4847 44.3964C69.0342 44.9022 69.309 45.5765 69.309 46.4194C69.309 46.9589 69.1968 47.4477 68.9725 47.886C68.7594 48.3243 68.4454 48.7008 68.0305 49.0155C67.6268 49.3302 67.139 49.5718 66.567 49.7404C65.9951 49.909 65.3503 49.9933 64.6325 49.9933ZM74.7567 49.9933C73.8932 49.9933 73.1419 49.8191 72.5026 49.4707C71.8634 49.1111 71.37 48.6053 71.0223 47.9535C70.6747 47.3016 70.5009 46.5374 70.5009 45.6608C70.5009 44.9977 70.5962 44.4077 70.7868 43.8907C70.9887 43.3625 71.2747 42.9185 71.6447 42.5589C72.0148 42.188 72.4634 41.9071 72.9905 41.716C73.5175 41.5137 74.1063 41.4126 74.7567 41.4126C75.1268 41.4126 75.5249 41.4631 75.9511 41.5643C76.3884 41.6654 76.7978 41.834 77.1791 42.07C77.3585 42.1824 77.4762 42.3173 77.5323 42.4746C77.5884 42.632 77.5996 42.7949 77.566 42.9635C77.5323 43.1208 77.4594 43.2613 77.3473 43.385C77.2463 43.4973 77.1174 43.5704 76.9604 43.6041C76.8034 43.6266 76.6295 43.5872 76.4389 43.4861C76.1922 43.34 75.9399 43.2332 75.6819 43.1658C75.424 43.0871 75.1773 43.0478 74.9418 43.0478C74.5717 43.0478 74.2465 43.1096 73.9661 43.2332C73.6858 43.3456 73.4447 43.5142 73.2428 43.739C73.0521 43.9525 72.9064 44.2222 72.8054 44.5482C72.7045 44.8741 72.654 45.2506 72.654 45.6776C72.654 46.5093 72.8503 47.1668 73.2428 47.65C73.6465 48.1221 74.2128 48.3581 74.9418 48.3581C75.1773 48.3581 75.4184 48.3244 75.6651 48.2569C75.923 48.1895 76.181 48.0827 76.4389 47.9366C76.6295 47.8355 76.7978 47.8018 76.9435 47.8355C77.1005 47.8692 77.2295 47.9479 77.3304 48.0715C77.4314 48.1839 77.4931 48.3244 77.5155 48.4929C77.5379 48.6503 77.5155 48.8076 77.4482 48.965C77.3921 49.1223 77.28 49.2515 77.1118 49.3527C76.7417 49.5775 76.3492 49.7404 75.9343 49.8416C75.5193 49.9427 75.1268 49.9933 74.7567 49.9933ZM79.9326 49.9427C79.5961 49.9427 79.3382 49.8416 79.1588 49.6393C78.9793 49.437 78.8896 49.156 78.8896 48.7964V42.6095C78.8896 42.2386 78.9793 41.9576 79.1588 41.7666C79.3382 41.5643 79.5961 41.4631 79.9326 41.4631C80.269 41.4631 80.5269 41.5643 80.7064 41.7666C80.897 41.9576 80.9923 42.2386 80.9923 42.6095V48.7964C80.9923 49.156 80.9026 49.437 80.7232 49.6393C80.5438 49.8416 80.2802 49.9427 79.9326 49.9427ZM79.9326 39.8953C79.5401 39.8953 79.2317 39.7998 79.0074 39.6088C78.7943 39.4065 78.6878 39.1311 78.6878 38.7827C78.6878 38.4231 78.7943 38.1477 79.0074 37.9567C79.2317 37.7656 79.5401 37.6701 79.9326 37.6701C80.3363 37.6701 80.6447 37.7656 80.8578 37.9567C81.0708 38.1477 81.1774 38.4231 81.1774 38.7827C81.1774 39.1311 81.0708 39.4065 80.8578 39.6088C80.6447 39.7998 80.3363 39.8953 79.9326 39.8953ZM87.2311 49.9933C86.3003 49.9933 85.4985 49.8191 84.8256 49.4707C84.1527 49.1223 83.6313 48.6278 83.2612 47.9872C82.9023 47.3466 82.7229 46.588 82.7229 45.7114C82.7229 44.8572 82.8967 44.1098 83.2444 43.4692C83.6032 42.8286 84.0911 42.3285 84.7079 41.9689C85.3359 41.598 86.048 41.4126 86.8442 41.4126C87.4274 41.4126 87.9488 41.5081 88.4086 41.6992C88.8796 41.8902 89.2777 42.1656 89.603 42.5252C89.9394 42.8848 90.1917 43.3231 90.3599 43.8401C90.5394 44.3459 90.6291 44.919 90.6291 45.5596C90.6291 45.7619 90.5562 45.9193 90.4104 46.0317C90.2758 46.1328 90.0796 46.1834 89.8216 46.1834H84.4219V44.9696H89.1488L88.8796 45.2225C88.8796 44.7055 88.8011 44.2728 88.6441 43.9244C88.4983 43.576 88.2796 43.3119 87.9881 43.1321C87.7077 42.941 87.3545 42.8455 86.9283 42.8455C86.4573 42.8455 86.0536 42.9579 85.7172 43.1827C85.3919 43.3962 85.1396 43.7053 84.9602 44.1098C84.792 44.5032 84.7079 44.9752 84.7079 45.5259V45.6439C84.7079 46.5655 84.9209 47.2567 85.3471 47.7175C85.7844 48.167 86.4237 48.3918 87.2647 48.3918C87.5563 48.3918 87.8815 48.3581 88.2404 48.2906C88.6105 48.212 88.9581 48.0827 89.2833 47.9029C89.5188 47.768 89.7263 47.7118 89.9057 47.7343C90.0852 47.7456 90.2254 47.8074 90.3263 47.9198C90.4384 48.0321 90.5057 48.1726 90.5281 48.3412C90.5506 48.4985 90.5169 48.6615 90.4272 48.8301C90.3487 48.9987 90.2085 49.1448 90.0067 49.2684C89.6142 49.5156 89.16 49.7011 88.6441 49.8247C88.1395 49.9371 87.6685 49.9933 87.2311 49.9933ZM93.3372 49.9596C93.0007 49.9596 92.7428 49.8697 92.5634 49.6898C92.3839 49.4988 92.2942 49.2291 92.2942 48.8807V42.5083C92.2942 42.1599 92.3839 41.8958 92.5634 41.716C92.7428 41.5362 92.9951 41.4463 93.3203 41.4463C93.6456 41.4463 93.8979 41.5362 94.0773 41.716C94.2567 41.8958 94.3465 42.1599 94.3465 42.5083V43.6547L94.1614 43.2332C94.4081 42.6376 94.7894 42.188 95.3053 41.8846C95.8324 41.5699 96.4267 41.4126 97.0884 41.4126C97.75 41.4126 98.2939 41.5362 98.7201 41.7834C99.1462 42.0307 99.4658 42.4072 99.6789 42.9129C99.892 43.4074 99.9985 44.0368 99.9985 44.801V48.8807C99.9985 49.2291 99.9088 49.4988 99.7294 49.6898C99.55 49.8697 99.292 49.9596 98.9556 49.9596C98.6192 49.9596 98.3556 49.8697 98.165 49.6898C97.9855 49.4988 97.8958 49.2291 97.8958 48.8807V44.9022C97.8958 44.2616 97.7725 43.7952 97.5257 43.503C97.2902 43.2108 96.9202 43.0647 96.4155 43.0647C95.7987 43.0647 95.3053 43.2613 94.9352 43.6547C94.5764 44.0368 94.3969 44.5482 94.3969 45.1888V48.8807C94.3969 49.5999 94.0437 49.9596 93.3372 49.9596ZM105.936 49.9933C105.072 49.9933 104.321 49.8191 103.682 49.4707C103.043 49.1111 102.549 48.6053 102.202 47.9535C101.854 47.3016 101.68 46.5374 101.68 45.6608C101.68 44.9977 101.775 44.4077 101.966 43.8907C102.168 43.3625 102.454 42.9185 102.824 42.5589C103.194 42.188 103.643 41.9071 104.17 41.716C104.697 41.5137 105.286 41.4126 105.936 41.4126C106.306 41.4126 106.704 41.4631 107.13 41.5643C107.568 41.6654 107.977 41.834 108.358 42.07C108.538 42.1824 108.655 42.3173 108.712 42.4746C108.768 42.632 108.779 42.7949 108.745 42.9635C108.712 43.1208 108.639 43.2613 108.527 43.385C108.426 43.4973 108.297 43.5704 108.14 43.6041C107.983 43.6266 107.809 43.5872 107.618 43.4861C107.371 43.34 107.119 43.2332 106.861 43.1658C106.603 43.0871 106.357 43.0478 106.121 43.0478C105.751 43.0478 105.426 43.1096 105.145 43.2332C104.865 43.3456 104.624 43.5142 104.422 43.739C104.231 43.9525 104.086 44.2222 103.985 44.5482C103.884 44.8741 103.833 45.2506 103.833 45.6776C103.833 46.5093 104.03 47.1668 104.422 47.65C104.826 48.1221 105.392 48.3581 106.121 48.3581C106.357 48.3581 106.598 48.3244 106.844 48.2569C107.102 48.1895 107.36 48.0827 107.618 47.9366C107.809 47.8355 107.977 47.8018 108.123 47.8355C108.28 47.8692 108.409 47.9479 108.51 48.0715C108.611 48.1839 108.672 48.3244 108.695 48.4929C108.717 48.6503 108.695 48.8076 108.627 48.965C108.571 49.1223 108.459 49.2515 108.291 49.3527C107.921 49.5775 107.528 49.7404 107.114 49.8416C106.699 49.9427 106.306 49.9933 105.936 49.9933ZM113.958 49.9933C113.028 49.9933 112.226 49.8191 111.553 49.4707C110.88 49.1223 110.359 48.6278 109.989 47.9872C109.63 47.3466 109.45 46.588 109.45 45.7114C109.45 44.8572 109.624 44.1098 109.972 43.4692C110.331 42.8286 110.818 42.3285 111.435 41.9689C112.063 41.598 112.775 41.4126 113.572 41.4126C114.155 41.4126 114.676 41.5081 115.136 41.6992C115.607 41.8902 116.005 42.1656 116.33 42.5252C116.667 42.8848 116.919 43.3231 117.087 43.8401C117.267 44.3459 117.356 44.919 117.356 45.5596C117.356 45.7619 117.284 45.9193 117.138 46.0317C117.003 46.1328 116.807 46.1834 116.549 46.1834H111.149V44.9696H115.876L115.607 45.2225C115.607 44.7055 115.528 44.2728 115.371 43.9244C115.226 43.576 115.007 43.3119 114.715 43.1321C114.435 42.941 114.082 42.8455 113.656 42.8455C113.185 42.8455 112.781 42.9579 112.444 43.1827C112.119 43.3962 111.867 43.7053 111.688 44.1098C111.519 44.5032 111.435 44.9752 111.435 45.5259V45.6439C111.435 46.5655 111.648 47.2567 112.074 47.7175C112.512 48.167 113.151 48.3918 113.992 48.3918C114.284 48.3918 114.609 48.3581 114.968 48.2906C115.338 48.212 115.685 48.0827 116.011 47.9029C116.246 47.768 116.454 47.7118 116.633 47.7343C116.812 47.7456 116.953 47.8074 117.054 47.9198C117.166 48.0321 117.233 48.1726 117.255 48.3412C117.278 48.4985 117.244 48.6615 117.155 48.8301C117.076 48.9987 116.936 49.1448 116.734 49.2684C116.341 49.5156 115.887 49.7011 115.371 49.8247C114.867 49.9371 114.396 49.9933 113.958 49.9933ZM124.8 49.9596C124.486 49.9596 124.244 49.8697 124.076 49.6898C123.908 49.51 123.824 49.2628 123.824 48.9481V38.8164C123.824 38.4905 123.914 38.2433 124.093 38.0747C124.273 37.8949 124.519 37.805 124.833 37.805C125.114 37.805 125.332 37.8611 125.489 37.9735C125.658 38.0747 125.809 38.2545 125.943 38.513L130.098 46.2171H129.56L133.715 38.513C133.85 38.2545 133.995 38.0747 134.152 37.9735C134.309 37.8611 134.528 37.805 134.808 37.805C135.122 37.805 135.364 37.8949 135.532 38.0747C135.7 38.2433 135.784 38.4905 135.784 38.8164V48.9481C135.784 49.2628 135.7 49.51 135.532 49.6898C135.375 49.8697 135.134 49.9596 134.808 49.9596C134.494 49.9596 134.253 49.8697 134.085 49.6898C133.917 49.51 133.833 49.2628 133.833 48.9481V41.1428H134.203L130.67 47.5995C130.558 47.7905 130.44 47.931 130.317 48.0209C130.194 48.1108 130.026 48.1558 129.812 48.1558C129.599 48.1558 129.426 48.1108 129.291 48.0209C129.156 47.9198 129.039 47.7793 128.938 47.5995L125.372 41.126H125.775V48.9481C125.775 49.2628 125.691 49.51 125.523 49.6898C125.366 49.8697 125.125 49.9596 124.8 49.9596ZM141.17 49.9933C140.486 49.9933 139.919 49.8697 139.471 49.6224C139.022 49.3639 138.686 48.9818 138.462 48.4761C138.248 47.9703 138.142 47.341 138.142 46.588V42.5083C138.142 42.1487 138.232 41.8846 138.411 41.716C138.591 41.5362 138.848 41.4463 139.185 41.4463C139.521 41.4463 139.779 41.5362 139.959 41.716C140.149 41.8846 140.245 42.1487 140.245 42.5083V46.6217C140.245 47.2061 140.362 47.6388 140.598 47.9198C140.833 48.2007 141.209 48.3412 141.725 48.3412C142.286 48.3412 142.745 48.1502 143.104 47.768C143.463 47.3747 143.643 46.8577 143.643 46.2171V42.5083C143.643 42.1487 143.732 41.8846 143.912 41.716C144.091 41.5362 144.349 41.4463 144.686 41.4463C145.022 41.4463 145.28 41.5362 145.459 41.716C145.65 41.8846 145.745 42.1487 145.745 42.5083V48.8807C145.745 49.5999 145.403 49.9596 144.719 49.9596C144.394 49.9596 144.142 49.8697 143.962 49.6898C143.783 49.4988 143.693 49.2291 143.693 48.8807V47.5995L143.929 48.1052C143.693 48.7121 143.334 49.1785 142.852 49.5044C142.381 49.8303 141.82 49.9933 141.17 49.9933ZM150.945 49.9933C150.463 49.9933 149.952 49.9427 149.414 49.8416C148.876 49.7404 148.394 49.5662 147.967 49.319C147.788 49.2066 147.659 49.0773 147.581 48.9312C147.513 48.7739 147.485 48.6222 147.496 48.4761C147.519 48.3187 147.575 48.1839 147.665 48.0715C147.766 47.9591 147.889 47.886 148.035 47.8523C148.192 47.8186 148.36 47.8467 148.539 47.9366C148.988 48.1502 149.409 48.3019 149.801 48.3918C150.194 48.4705 150.58 48.5098 150.962 48.5098C151.5 48.5098 151.898 48.4199 152.156 48.2401C152.425 48.049 152.56 47.8018 152.56 47.4983C152.56 47.2398 152.47 47.0431 152.291 46.9083C152.122 46.7622 151.864 46.6554 151.517 46.588L149.835 46.2677C149.139 46.1328 148.607 45.8799 148.237 45.5091C147.878 45.1269 147.698 44.6381 147.698 44.0424C147.698 43.503 147.844 43.0366 148.136 42.6432C148.438 42.2498 148.853 41.9464 149.38 41.7329C149.908 41.5193 150.513 41.4126 151.197 41.4126C151.691 41.4126 152.15 41.4688 152.577 41.5812C153.014 41.6823 153.435 41.8453 153.838 42.07C154.006 42.1599 154.119 42.2779 154.175 42.424C154.242 42.5702 154.259 42.7219 154.225 42.8792C154.191 43.0253 154.124 43.1602 154.023 43.2838C153.922 43.3962 153.793 43.4692 153.636 43.503C153.491 43.5254 153.322 43.4917 153.132 43.4018C152.784 43.222 152.448 43.0927 152.122 43.0141C151.808 42.9354 151.506 42.8961 151.214 42.8961C150.665 42.8961 150.255 42.9916 149.986 43.1827C149.728 43.3737 149.599 43.6266 149.599 43.9413C149.599 44.1773 149.678 44.374 149.835 44.5313C149.992 44.6886 150.233 44.7954 150.558 44.8516L152.24 45.1719C152.969 45.3068 153.519 45.554 153.889 45.9137C154.27 46.2733 154.461 46.7566 154.461 47.3634C154.461 48.1839 154.141 48.8301 153.502 49.3021C152.863 49.7629 152.01 49.9933 150.945 49.9933ZM160.201 49.9933C159.271 49.9933 158.469 49.8191 157.796 49.4707C157.123 49.1223 156.602 48.6278 156.232 47.9872C155.873 47.3466 155.693 46.588 155.693 45.7114C155.693 44.8572 155.867 44.1098 156.215 43.4692C156.574 42.8286 157.061 42.3285 157.678 41.9689C158.306 41.598 159.018 41.4126 159.815 41.4126C160.398 41.4126 160.919 41.5081 161.379 41.6992C161.85 41.8902 162.248 42.1656 162.573 42.5252C162.91 42.8848 163.162 43.3231 163.33 43.8401C163.51 44.3459 163.599 44.919 163.599 45.5596C163.599 45.7619 163.527 45.9193 163.381 46.0317C163.246 46.1328 163.05 46.1834 162.792 46.1834H157.392V44.9696H162.119L161.85 45.2225C161.85 44.7055 161.771 44.2728 161.614 43.9244C161.469 43.576 161.25 43.3119 160.958 43.1321C160.678 42.941 160.325 42.8455 159.899 42.8455C159.428 42.8455 159.024 42.9579 158.688 43.1827C158.362 43.3962 158.11 43.7053 157.931 44.1098C157.762 44.5032 157.678 44.9752 157.678 45.5259V45.6439C157.678 46.5655 157.891 47.2567 158.317 47.7175C158.755 48.167 159.394 48.3918 160.235 48.3918C160.527 48.3918 160.852 48.3581 161.211 48.2906C161.581 48.212 161.928 48.0827 162.254 47.9029C162.489 47.768 162.697 47.7118 162.876 47.7343C163.056 47.7456 163.196 47.8074 163.297 47.9198C163.409 48.0321 163.476 48.1726 163.499 48.3412C163.521 48.4985 163.487 48.6615 163.398 48.8301C163.319 48.9987 163.179 49.1448 162.977 49.2684C162.585 49.5156 162.13 49.7011 161.614 49.8247C161.11 49.9371 160.639 49.9933 160.201 49.9933ZM168.242 49.9933C167.558 49.9933 166.992 49.8697 166.543 49.6224C166.094 49.3639 165.758 48.9818 165.534 48.4761C165.321 47.9703 165.214 47.341 165.214 46.588V42.5083C165.214 42.1487 165.304 41.8846 165.483 41.716C165.663 41.5362 165.921 41.4463 166.257 41.4463C166.594 41.4463 166.851 41.5362 167.031 41.716C167.222 41.8846 167.317 42.1487 167.317 42.5083V46.6217C167.317 47.2061 167.435 47.6388 167.67 47.9198C167.906 48.2007 168.281 48.3412 168.797 48.3412C169.358 48.3412 169.818 48.1502 170.177 47.768C170.535 47.3747 170.715 46.8577 170.715 46.2171V42.5083C170.715 42.1487 170.805 41.8846 170.984 41.716C171.163 41.5362 171.421 41.4463 171.758 41.4463C172.094 41.4463 172.352 41.5362 172.532 41.716C172.722 41.8846 172.818 42.1487 172.818 42.5083V48.8807C172.818 49.5999 172.475 49.9596 171.791 49.9596C171.466 49.9596 171.214 49.8697 171.034 49.6898C170.855 49.4988 170.765 49.2291 170.765 48.8807V47.5995L171.001 48.1052C170.765 48.7121 170.406 49.1785 169.924 49.5044C169.453 49.8303 168.892 49.9933 168.242 49.9933ZM176.083 49.9596C175.746 49.9596 175.488 49.8697 175.309 49.6898C175.13 49.4988 175.04 49.2291 175.04 48.8807V42.5083C175.04 42.1599 175.13 41.8958 175.309 41.716C175.488 41.5362 175.741 41.4463 176.066 41.4463C176.391 41.4463 176.643 41.5362 176.823 41.716C177.002 41.8958 177.092 42.1599 177.092 42.5083V43.739L176.907 43.2332C177.131 42.6713 177.479 42.2274 177.95 41.9014C178.421 41.5755 178.982 41.4126 179.632 41.4126C180.294 41.4126 180.838 41.5699 181.264 41.8846C181.69 42.1993 181.987 42.6825 182.155 43.3344H181.92C182.144 42.7387 182.514 42.2723 183.03 41.9352C183.546 41.5868 184.14 41.4126 184.813 41.4126C185.441 41.4126 185.957 41.5362 186.361 41.7834C186.776 42.0307 187.085 42.4072 187.287 42.9129C187.488 43.4074 187.589 44.0368 187.589 44.801V48.8807C187.589 49.2291 187.494 49.4988 187.303 49.6898C187.124 49.8697 186.865 49.9596 186.529 49.9596C186.193 49.9596 185.935 49.8697 185.755 49.6898C185.576 49.4988 185.486 49.2291 185.486 48.8807V44.8853C185.486 44.256 185.38 43.7952 185.166 43.503C184.965 43.2108 184.617 43.0647 184.124 43.0647C183.574 43.0647 183.142 43.2613 182.828 43.6547C182.514 44.0368 182.357 44.5706 182.357 45.2562V48.8807C182.357 49.2291 182.268 49.4988 182.088 49.6898C181.909 49.8697 181.651 49.9596 181.314 49.9596C180.978 49.9596 180.714 49.8697 180.524 49.6898C180.344 49.4988 180.255 49.2291 180.255 48.8807V44.8853C180.255 44.256 180.148 43.7952 179.935 43.503C179.733 43.2108 179.391 43.0647 178.909 43.0647C178.359 43.0647 177.928 43.2613 177.614 43.6547C177.3 44.0368 177.143 44.5706 177.143 45.2562V48.8807C177.143 49.5999 176.789 49.9596 176.083 49.9596Z" fill="#1C1D25"/>
</svg>
